<svg xmlns="http://www.w3.org/2000/svg" viewBox="0 0 807.11 583.87"><defs><style>.cls-1{fill:#8350ff;}.cls-18,.cls-2{fill:none;}.cls-2{stroke:#000;stroke-width:3px;}.cls-18,.cls-2,.cls-26,.cls-28{stroke-miterlimit:10;}.cls-3{fill:#c4c3c8;}.cls-4{fill:#757575;}.cls-5{fill:#fff;}.cls-6{fill:#9e005d;}.cls-7{fill:#876756;}.cls-8{fill:#d1a20d;}.cls-9{fill:#f0c30f;}.cls-10{fill:#664d40;}.cls-11{fill:#4e3d35;}.cls-12{fill:#29abe2;}.cls-13{fill:#cde6e2;}.cls-14{fill:#115174;}.cls-15{fill:#7c2b22;}.cls-16{fill:#1a1a1a;}.cls-17{fill:#313e3f;}.cls-18{stroke:#fff;}.cls-18,.cls-26,.cls-28{stroke-width:0.25px;}.cls-19{fill:#d1cfda;}.cls-20{fill:#dcdbe1;}.cls-21{fill:#d5d5d5;}.cls-22{fill:#e8e7ec;}.cls-23{fill:#dcd9e0;}.cls-24{fill:#e7e5f2;}.cls-25{fill:#b5bdbf;}.cls-26{fill:#dfddde;}.cls-26,.cls-28{stroke:gray;}.cls-27{fill:#bcbcbc;}.cls-28{fill:#fcfcfc;}</style></defs><g id="Layer_2" data-name="Layer 2"><g id="Layer_1-2" data-name="Layer 1"><rect class="cls-1" width="807.11" height="583.87" rx="15.99"/><path class="cls-2" d="M154.07,362.24c-41.36,0-67.69-5.63-80.27-9.23-7.16-2-12.74-8.13-13.31-15.55-.51-6.58,16.69-15.69,30.85-17.71"/><path class="cls-3" d="M141,10.45H534.88a5.31,5.31,0,0,1,5.31,5.31V299.34a0,0,0,0,1,0,0H135.66a0,0,0,0,1,0,0V15.76A5.31,5.31,0,0,1,141,10.45Z"/><path class="cls-4" d="M89.47,299.34H590.72a1.66,1.66,0,0,1,1.66,1.66v26.91a5.13,5.13,0,0,1-5.13,5.13H92.94a5.13,5.13,0,0,1-5.13-5.13V301a1.66,1.66,0,0,1,1.66-1.66Z"/><rect class="cls-5" x="159.58" y="41.75" width="361.03" height="226.3"/><path class="cls-6" d="M300.71,297.9h78.77a1.94,1.94,0,0,1,1.94,1.94v7.69a0,0,0,0,1,0,0H298.77a0,0,0,0,1,0,0v-7.69A1.94,1.94,0,0,1,300.71,297.9Z" transform="translate(680.19 605.43) rotate(180)"/><rect class="cls-6" x="148.71" y="20.08" width="126.14" height="9.63" rx="0.97"/><rect class="cls-6" x="287.9" y="19.58" width="26.1" height="9.63" rx="0.97"/><path class="cls-7" d="M382.17,193.17c7.43,0,14.87.05,22.3,0,6.84,0,11-4.12,11.12-10.9,0-1.64.1-3.29,0-4.92s.4-2.27,2.14-2.22c4.65.11,9.29,0,13.94,0,7.79,0,15.58.05,23.37,0,1.73,0,2.33.56,2.13,2.22-.17,1.49-.24,3-.36,4.48-1.09,13.07-4,25.66-9.89,37.47-.32.66-1.14,1.35-.53,2.12s1.48.42,2.24.36a30.93,30.93,0,0,0,7.85-1.89c0,2.31-.14,4.39,0,6.43s-.58,2.63-2.63,2.62c-19.09-.08-38.17,0-57.25,0q-40.63,0-81.26,0c-1.84,0-2.64-.41-2.44-2.37a28.49,28.49,0,0,0,0-4.71c-.1-1.59.15-2.26,1.95-1.52a21.24,21.24,0,0,0,9.24,1.47c.61,0,1.39.16,1.67-.61s-.33-1-.69-1.46a38.43,38.43,0,0,1-4.38-6.08c-4.66-8.07-6.83-16.91-8-26a2.87,2.87,0,0,0-1.83-2.55c-4.39-2.07-8.75-4.22-13.1-6.37-1.52-.75-2.45-1.9-1.6-3.63s2.21-1.83,3.81-1.05c2.56,1.27,5.26,2.3,7.69,3.78,6.73,4.09,13.9,6.24,21.78,5.07,4.9-.73,8.22.92,10.65,5.26,2.11,3.74,5.75,5.11,10,5.08,8.08,0,16.16,0,24.23,0Zm39,15.48a5.28,5.28,0,1,0-5.24,5.13A5.27,5.27,0,0,0,421.14,208.65Zm-30.89-.1a5.28,5.28,0,1,0-5.14,5.23A5.28,5.28,0,0,0,390.25,208.55Zm-30.89.14a5.28,5.28,0,1,0-5.28,5.09A5.27,5.27,0,0,0,359.36,208.69Z"/><path class="cls-8" d="M359.81,96.62c-6.05,2.36-10.29,6.88-13.92,12-6.15,8.64-9.19,18.5-10.44,28.92a72.33,72.33,0,0,0,2.13,29.7c1.91,6.38,4.81,12.22,9.56,17,.77.78,1.34,1.35,2.39.22,5.65-6,13-8.24,20.91-9.27,1.34-.17,2.69-.22,4-.32a49.44,49.44,0,0,1,7.6,0,72.73,72.73,0,0,1,10,.91c.7.09,1.41.11,2.12.17-.36-1-1.28-1.32-2-1.81a68.74,68.74,0,0,1-12.51-10.35A73.36,73.36,0,0,1,361.42,132a71.86,71.86,0,0,1-2.56-26C359.16,102.85,359.89,99.78,359.81,96.62Z"/><path class="cls-9" d="M359.81,96.62c.08,3.16-.65,6.23-.95,9.35a71.86,71.86,0,0,0,2.56,26,73.36,73.36,0,0,0,18.23,31.79,68.74,68.74,0,0,0,12.51,10.35c.76.49,1.68.84,2,1.81.64-.11,2.23,1.45,1.7-.77a157.79,157.79,0,0,1-4.46-33.45c-.26-11,.6-21.81,4-32.33a43.52,43.52,0,0,1,10.25-17.61c.24-.24.56-.47.46-1l-24,2.49a42.1,42.1,0,0,1-7.76,1c-4.16.52-8.32,1.07-12.49,1.56A2.93,2.93,0,0,0,359.81,96.62Z"/><path class="cls-9" d="M400.16,147.39c0,5.93.06,11.87,0,17.8,0,1.8.58,2.31,2.33,2.3,11.37-.07,22.73,0,34.1,0,1.43,0,2.62.07,1.83-2.07q-8.1-21.9-16.05-43.88c-.7-1.92-1.47-2.35-3.42-1.53-5.59,2.36-11.26,4.55-16.93,6.72a2.45,2.45,0,0,0-1.85,2.68C400.2,135.38,400.16,141.39,400.16,147.39Z"/><path class="cls-7" d="M382.17,85.11c2,0,4,0,6,0,1.11,0,1.72-.25,1.71-1.54-.05-4.14,0-8.28,0-12.42,0-1.11-.43-1.5-1.52-1.5q-10.07,0-20.14,0c-1.08,0-1.53.39-1.52,1.5,0,4.14.05,8.28,0,12.42,0,1.29.59,1.57,1.71,1.54,2,0,4,0,6,0Z"/><path class="cls-10" d="M382.08,174.87a49.44,49.44,0,0,0-7.6,0l-.09,18.3h7.78Z"/><path class="cls-10" d="M382.17,85.11h-7.78l0,9.14a42.1,42.1,0,0,0,7.76-1C382.18,90.57,382.17,87.84,382.17,85.11Z"/><path class="cls-11" d="M415.9,213.78a5.15,5.15,0,1,0-5.32-5.06A5.27,5.27,0,0,0,415.9,213.78Z"/><path class="cls-11" d="M385.11,213.78a5.15,5.15,0,1,0-5.42-5.17A5.27,5.27,0,0,0,385.11,213.78Z"/><path class="cls-11" d="M354.08,213.78a5.15,5.15,0,1,0-5.27-5.09A5.26,5.26,0,0,0,354.08,213.78Z"/><path d="M373.48,278.57a373.81,373.81,0,0,0-39.42,14.72,357.78,357.78,0,0,0-37.53,19c-6,3.55-11.94,7.33-17.65,11.36s-11.48,8.26-17.4,12.13-12,7.56-18.35,10.87a140.67,140.67,0,0,1-19.67,8.44c-13.56,4.6-27.79,6.73-41.92,7.7-7.08.49-14.16.72-21.23.82s-14.14.09-21.22-.12a335.56,335.56,0,0,1-42.32-3.7c-7-1.09-14-2.47-20.86-4.25-.87-.22-1.72-.46-2.58-.7a22.46,22.46,0,0,1-2.65-.85,10.31,10.31,0,0,1-7-8.8,24.86,24.86,0,0,1-.15-5.44l.86-.06c.4,1.72.75,3.44,1.27,5a15.58,15.58,0,0,0,.92,2.25,9,9,0,0,0,1.31,1.86,7.2,7.2,0,0,0,1.75,1.39,11,11,0,0,0,2.1,1c.75.26,1.54.48,2.4.72s1.68.46,2.53.67c6.77,1.73,13.66,3.06,20.59,4.11a330.23,330.23,0,0,0,41.92,3.5c7,.18,14.05.16,21.09.05s14-.38,21-.89c14-1,27.86-3.15,41-7.67a137.23,137.23,0,0,0,19.17-8.22,209.1,209.1,0,0,0,18.05-10.68c2.92-1.92,5.83-3.89,8.69-5.91s5.69-4.09,8.61-6.14c5.81-4.09,11.8-7.91,17.91-11.51a336.82,336.82,0,0,1,38-19,375.9,375.9,0,0,1,39.91-14.57Z"/><path class="cls-12" d="M251.1,119.16c-5,5.24-10.53,10-14.68,16-.72,1-1.51,2-2.18,3.08-1.86,2.93-1.21,4.39,2.32,5.34-1.4,3.19-2.89,6.34-4.15,9.58-2.1,5.39-4.91,10.52-5.94,16.3-5.41,7.55-10.66,15.19-14.46,23.73a152.4,152.4,0,0,0-6.79,17.71c-.65,2.15-1.37,2-2.63.53-10.31-12.06-18.82-25.29-23.92-40.33-2.11-6.23-1.8-13.14-1.49-19.8.19-4.22.71-8.41,1.07-12.62.15-1.72,1.22-2.58,2.4-3.85,3.63-3.89,8.46-4.86,12.92-6.85a13.37,13.37,0,0,0,7.7-9.9,8.79,8.79,0,0,1,7.28-7.36,13.66,13.66,0,0,0,9.52-7c2.56-4.4,7.47-6,12.17-7.36,1.14-.34,2,.61,2.81,1.21,7.92,5.56,16.49,9.37,26.31,9.87C256.68,111.36,252.93,114.58,251.1,119.16Z"/><path class="cls-12" d="M268.55,177.33a108.55,108.55,0,0,0-8.7,29,98.81,98.81,0,0,0-1.71,14c0,2.11-.65,3-3,2.7A57.16,57.16,0,0,0,222.38,229c-1.53.76-2.62.91-3.89-.41a45.4,45.4,0,0,0-5.38-4.91c-4.2-3.12-4.39-7.36-3.64-11.92.21-1.24.46-2.63,1.7-3.25,2.85-1.43,4.26-4,5.65-6.62a21.79,21.79,0,0,1,8.58-8.66,12.34,12.34,0,0,0,6-7.76,14.06,14.06,0,0,1,6.39-8.36c2.38-1.48,4.5-2.27,7.42-.18a13.06,13.06,0,0,0,11.19,1.9C260.21,177.77,264.18,178.77,268.55,177.33Z"/><path class="cls-13" d="M179.69,133.1a63,63,0,0,1,8.94-23.86C198.22,94,212,84.34,229.62,81c10.24-1.91,20.36.58,30,4.5a46.61,46.61,0,0,1,19.78,14.78c2.05,2.65,2.34,6,.77,7.83-1.72,2.06-5,2.63-7.77.53-3.19-2.38-6.49-2.65-10.27-2.86a49.71,49.71,0,0,1-28.27-10.31,5.06,5.06,0,0,0-5.73-.84c-5.38,2.28-10.68,4.54-13.36,10.39-1,2.15-3.31,2.88-5.5,3.33-5.47,1.14-9,4-10.13,9.8A11.21,11.21,0,0,1,190.5,127C186.31,128.12,182.56,129.61,179.69,133.1Z"/><path class="cls-6" d="M272.76,75.34c-5.63,4.7-12.05,3.61-18.56,3-15-1.37-29.69-.4-43.32,7.22-17.12,9.58-27.52,24.16-32.6,42.84-1.88,6.94-2.51,14.09-3.23,21.34-3.74-2.16-2.82-6.19-3.65-9.21a67.23,67.23,0,0,1-2-22.89q.67-8.67,1.4-17.34a3.9,3.9,0,0,1,3.32-3.91,28.47,28.47,0,0,0,16-10.64,45.65,45.65,0,0,1,9.22-8.65,16.1,16.1,0,0,1,7.84-3c6.38-.82,12.21-3.52,17.57-6.87,6.89-4.3,13.55-4.9,20.51-.59,7.53,4.68,16.25,5.62,24.58,7.78C270.85,74.65,271.92,74.62,272.76,75.34Z"/><path class="cls-12" d="M392.63,223.12l1.77-.16c-1,2.78-4.38,3.32-5.66,5.86-5.72.9-10.76,3.31-15.68,6.32-6.26,3.83-13.33,5.21-20.61,5.32A244.37,244.37,0,0,1,308.36,237c-15-2.5-29-8.18-43.57-12-5.76-1.52-5.75-1.55-5-7.48.61-4.51,2.43-5.46,6.12-2.81s8.1,2.58,12,4.58c2.23,1.16,4.51,2.06,6.3,3.86a15.68,15.68,0,0,0,6.59,4.24c2.56.78,4.42,0,5.16-2.66.32-1.14.37-1.88,1.95-1.55,17.72,3.68,35.66,3.47,53.61,2.85,13.3-.46,26.55-1.53,39.79-2.71Z"/><path class="cls-13" d="M172,94.9c1-4.32,1.95-8.08,2.82-11.85a7.41,7.41,0,0,1,2.36-4C192.68,65,209.92,54.17,231,50.59a106.48,106.48,0,0,1,24.24-1.77,18.06,18.06,0,0,1,4.64,1c5.65,1.89,8,5.86,7.05,11.74-1.39,8.62-4.16,10.28-12.29,7.08A101.65,101.65,0,0,1,244,63.73c-6.08-3.24-12-2.75-17.79.46a103.16,103.16,0,0,1-11.88,5.87,28.38,28.38,0,0,1-8.86,2.19c-2.84.18-5.15,1.75-7.37,3.37A69.75,69.75,0,0,0,186.3,87.07C182.63,91.38,177.76,93.39,172,94.9Z"/><path class="cls-13" d="M390.59,236.31c-5.24,3.67-10.1,7.26-15.61,9.23s-11.24,2.63-16.93,3.59c-4.77.81-9.6,1.32-14.42,1.81a14.09,14.09,0,0,1-8.85-1.49c-2.63-1.51-5.64-.94-8.34,0-12,4.2-24.12,3.34-36.24,1a22.86,22.86,0,0,1-8.81-4.06c-8.2-5.88-17.09-9.28-27.31-6.55a91.92,91.92,0,0,0-10.63,4c-1.14.46-2,.76-3.23.05A158,158,0,0,1,222,231.23c7.71-4.18,15.41-6.14,23.63-2a2.33,2.33,0,0,0,.89.32c6.75.27,13.07,2.8,19.71,3.65,3.46.45,6.3,2.25,9.26,3.84,4.39,2.37,8.93,4.3,14.06,4.09,3.35-.14,4.6-1.62,4.38-5.08a209,209,0,0,0,32.27,5.9,2.82,2.82,0,0,1,2.15,1.11c2.09,2.73,5,3.71,8.32,3.76a57.33,57.33,0,0,0,9.8-.48c4.45-.7,8.81.07,13.18.85,2.3.41,4.49.6,5.93-2.18.83-1.6,3.07-1.67,4.79-2,4.14-.75,8.32-1,10.38-5.82.77-1.8,3.33-2,5.43-1.7C387.47,235.7,388.79,236,390.59,236.31Z"/><path class="cls-14" d="M226.47,169.42c1-5.78,3.84-10.91,5.94-16.3,1.26-3.24,2.75-6.39,4.15-9.58,3-2.91,5-6.82,8.81-8.93,3.67-2,7.77-3.11,11.14-5.81,4.93-4,10.2-7.48,14.42-12.26.2-.24.42-.55.7-.63,4.62-1.38,9.35-2.43,14.15-2.11,2.23.15.73,1.62-.07,2.28-7.34,6-12.78,13.69-18.07,21.45-2.31,3.4-4.29,7-6.4,10.55-.59,1-1,2-2.38,2.29-12.57,2.25-22.61,8.89-31.16,18.09A9,9,0,0,1,226.47,169.42Z"/><path class="cls-13" d="M209.05,206.54c6.9-19,15.75-36.67,33.74-47.85,3.88-2.42,8-4.33,12.74-4.05,4.13.24,8.67,3,9.54,6.24,1.25,4.63.85,9.06-2.82,12.58a13.26,13.26,0,0,1-17.11,1c-2-1.53-4-1-5.94-.21a15.72,15.72,0,0,0-9.5,10.35,11.38,11.38,0,0,1-5.43,7,23.63,23.63,0,0,0-9.43,10c-1.19,2.34-2.49,4.7-5.43,5.32Z"/><path class="cls-14" d="M244.89,246.09c4.83-3.48,9.71-3.81,12.54-1.57,2.05,1.61,4.77,1.55,7.05,2.39,4.92,1.82,10.49,2.33,14.47,6.44a13.63,13.63,0,0,0,7.82,3.9c2.06.32,4-.18,4.6-2.36s2-2,3.48-1.69a66.56,66.56,0,0,0,33.74-2.28,7.37,7.37,0,0,1,6.11.65c3.38,1.9,7.11,1.72,10.82,1.23,5.32-.71,10.63-1.41,16-1.84a146.38,146.38,0,0,1-58.86,10.32A132,132,0,0,1,244.89,246.09Z"/><path class="cls-13" d="M277.09,112.42c6.56-2.67,8.09-7.76,3.8-13.34-6.57-8.57-15.35-13.94-25.5-17.26-.69-.23-1.41-.42-2.11-.64-.07,0-.12-.13-.28-.3a11.62,11.62,0,0,1,4.8-.11c1.55.27,3.08.68,4.62,1s3.33.56,5,.87c7.7,1.44,15.17,3.58,21.9,7.72,4.72,2.9,8.45,6.62,9.25,12.5.76,5.63-1.67,8.86-7.33,9C286.51,111.92,281.77,110.72,277.09,112.42Z"/><path class="cls-13" d="M274.48,112c-6.58,4.33-11.83,10.34-18.49,14.57a44.44,44.44,0,0,1-8.78,4.8c-4.25,1.52-7.47,4.64-10,8.45-.42.65-.64,2-1.65,1.47s-.32-1.47.19-2.18c8.88-12.4,19.89-22.25,34-28.3C271,110.31,271,110.41,274.48,112Z"/><path class="cls-13" d="M267,52.13c8.83.91,13.34,7.32,14.05,14.69.38,3.93-2,6.06-5.92,6.15a27.26,27.26,0,0,1-9.8-2.15c3.36-6,5.28-12.12,1.75-18.74Z"/><path class="cls-13" d="M262.46,176.41c8.08-9.5,7.15-15.87-3.51-23.84,5.77-.41,11.24-.81,15.12,3.9,3.26,4,3.13,8.7,1,13.14C272.63,174.66,267.81,175.74,262.46,176.41Z"/><path class="cls-6" d="M241.44,225.29c7.2-1.49,13.76-.47,20.25.88A62.92,62.92,0,0,1,278.31,232c3.49,1.84,7.49,2.12,11,3.85,1,.48,2.65.71,2.41,2.07-.27,1.62-2,1.23-3.18,1.21-4.32-.11-8.22-1.7-11.92-3.78s-7.86-3.17-12-4.47C257.19,228.55,249,229.4,241.44,225.29Z"/><path class="cls-13" d="M271.27,151.8c10.53-.74,17.9,10.78,13.6,20.51-1.75,4-6.09,5-12.35,3.22a13.88,13.88,0,0,0,5.79-11.95C278.26,158.66,276.49,154.57,271.27,151.8Z"/><path class="cls-13" d="M279,55.93c6.24-.06,12.38,4.85,13.34,10.68,1.15,6.91-3.86,11.23-10.51,9.06-.87-.29-1.72-.64-2.63-1,4.56-5,4.93-8.11,2-14.34-.71-1.49-1.93-2.75-2.12-4.48Z"/><path class="cls-13" d="M298.39,96.61c4.42,1.61,9.13,8.48,8.51,12.48-.54,3.51-2.16,6.3-5.7,7.67-4.15,1.6-7.49,0-11.35-2.75,4.78-.34,8.8-1.16,10.25-5.76C301.37,104.23,300.62,100.41,298.39,96.61Z"/><path class="cls-12" d="M351.48,223.83c-4.23.82-8.51.17-13.35.74a9.06,9.06,0,0,1,7.78-3.72,13.13,13.13,0,0,0,7.79-1.78,8.47,8.47,0,0,1,8.19-.54c1.84.85,2.93.41,4.44-.69,3.6-2.64,9.54-1,11.3,3.08,1.05,2.45-1.22,1.34-2.15,1.63-2.69-3.27-5.69-3.92-9-1.56a4.73,4.73,0,0,1-4.74.84C358.19,220.83,354.48,221,351.48,223.83Z"/><path class="cls-6" d="M256.41,241.37a28.62,28.62,0,0,1,17.53,2.84c4.73,2.3,8.63,6,13.68,7.78.9.31,2.37,1.07,1.68,2.51-.6,1.22-1.87,1.08-3.08.71a19.19,19.19,0,0,1-6.78-3.91c-2.32-2-5.17-2.91-7.86-4.2C266.77,244.8,260.94,245.53,256.41,241.37Z"/><path class="cls-6" d="M378.57,234.3c-.14,4.35-2.12,5.48-4.67,6-2.26.48-4.54.88-6.78,1.45-1,.26-2.43.62-2.77,1.35-1.47,3.18-4,2.21-6.23,1.74-4.95-1-9.86-.68-14.82-.23-4.22.38-8.6,1.12-12.4-2.09C347.3,243.7,363.68,244.83,378.57,234.3Z"/><path class="cls-13" d="M265.8,211.49c5.53-1.14,10.52.49,15.24,3.25,3.8,2.22,6.91,5.5,11,7.31,1.08.48,2.46,1.37,1.53,2.91-.8,1.31-2.12.53-3.16.15a5.64,5.64,0,0,1-2.43-1.42c-3.54-4.34-8.67-6.1-13.49-8.24-2.59-1.14-5.87-.53-8.08-2.91C266.17,212.26,265.65,212.18,265.8,211.49Z"/><path class="cls-13" d="M284.66,155.76c4.75.19,7.28,2.16,8.38,6.31a18.6,18.6,0,0,1,.65,6.59,5.53,5.53,0,0,1-2.63,4.47c-1.25.77-2.86,1.68-4.09.9s.29-2.05.52-3.1A19.85,19.85,0,0,0,284.66,155.76Z"/><path class="cls-14" d="M388.74,228.82c1.28-2.54,4.63-3.08,5.66-5.86l12.83-1.39a95.08,95.08,0,0,1-9.55,9.21c-.43.33-.91.59-1.43.22C394,229.4,391.17,229.81,388.74,228.82Z"/><path class="cls-14" d="M251.1,119.16c1.83-4.58,5.58-7.8,8.26-11.78a15.89,15.89,0,0,1,8.95,1.57c-2.89,1.55-5.42,3-8,4.26C257,114.87,254.5,117.7,251.1,119.16Z"/><path class="cls-6" d="M351.48,223.83c3-2.84,6.71-3,10.28-2a4.73,4.73,0,0,0,4.74-.84c3.29-2.36,6.29-1.71,9,1.56C367.49,223.19,359.52,224,351.48,223.83Z"/><path class="cls-13" d="M383.12,233.18c3.35-1.13,6.69-2.21,10.64-1C390.22,235.11,386.55,233.1,383.12,233.18Z"/><path class="cls-14" d="M412.91,194.3c.3-.62.68-.84,1.25-.29C413.86,194.66,413.46,194.83,412.91,194.3Z"/><path class="cls-14" d="M392.63,223.12l-1.31.16A1,1,0,0,1,392.63,223.12Z"/><path class="cls-13" d="M209.41,206.91c-.06.28-.2.52-.49.3-.08-.07.08-.44.13-.67Z"/><path class="cls-13" d="M279.12,55.88l-.4-.27c.09,0,.2-.11.27-.09.29.09.3.24.05.41Z"/><path class="cls-15" d="M345,204.81c.17-.2.35-.46.56-.07,0,0-.18.24-.28.38Z"/><path class="cls-13" d="M267.07,52.08l-.42-.33c.1,0,.22-.1.3-.07.3.11.31.28,0,.45Z"/><rect class="cls-16" x="371.11" y="195.32" width="355.54" height="232.84" rx="0.63"/><rect class="cls-17" x="461.9" y="215.54" width="249.57" height="191.01" rx="2.17"/><rect class="cls-18" x="476.9" y="228.09" width="220.69" height="165.92"/><rect class="cls-17" x="383.66" y="216.24" width="59.95" height="62.74" rx="1.63"/><rect class="cls-17" x="383.66" y="338.93" width="59.95" height="68.32" rx="1.63"/><rect class="cls-17" x="383.44" y="291.33" width="59.95" height="36.45" rx="1.63"/><path class="cls-19" d="M579.42,319.18l-3.54,5.9s-.79,1.18,0,1.57,7.08-5.11,7.08-5.11Z"/><path class="cls-20" d="M592.6,314.65a5.75,5.75,0,0,1-1.18,3.15c-1.18,1.58-8.26,4.72-8.26,4.72A9.83,9.83,0,0,1,580,321s0,0,0,0c-1.58-1.18-2-2-1.58-2.75s2.36-6.3,3.15-8.27,3.15-1.18,3.15-1.18l3.22,2.42Z"/><path class="cls-21" d="M592.6,314.65a5.75,5.75,0,0,1-1.18,3.15c-1.18,1.58-8.26,4.72-8.26,4.72A9.83,9.83,0,0,1,580,321l6.62-9.55,1.3-.25Z"/><path class="cls-22" d="M734,150.4c-1.28,1.6-3.61,5-4.43,6.25l-.29.44-.9-.69-3.7-2.81-3.66-2.79s3.15-3.94,5.11-6.3,3.15-2.36,4.33-1.57a20.93,20.93,0,0,1,2.06,1.65c1.15,1,2.27,2.21,2.27,2.68C734.82,148,735.6,148.44,734,150.4Z"/><path class="cls-23" d="M724.71,153.59l7.84-9c1.15,1,2.27,2.21,2.27,2.68,0,.78.78,1.18-.79,3.14-1.28,1.6-3.61,5-4.43,6.25l-1.19-.25Z"/><path class="cls-24" d="M734.71,162.63s-25.2,30.45-32.54,38.48c-7.07,7.75-48.39,54.71-51.34,58.06l-.17.19-11.34,10.91c-5.68,5.45-27.44,28.34-28.57,32a10.58,10.58,0,0,1-1.58,3.16h0a8.26,8.26,0,0,1-2.14,2.06l-14.32,9.29-5.61-5L582.76,308l7.48-15.35a7.83,7.83,0,0,1,1.54-2.13A9.93,9.93,0,0,1,595,288.3c3.54-1.58,23.6-26,28.32-32.26l9.44-12.58a0,0,0,0,1,0,0s44.45-50,51.53-58.23,34.23-37,34.23-37,6.3,1.18,9,4.33l1.19,1.09.58.52C732.77,156.53,734.71,162.63,734.71,162.63Z"/><path class="cls-24" d="M734.71,162.63s-25.2,30.45-32.54,38.48c-7.07,7.75-48.39,54.71-51.34,58.06l-.17.19-11.34,10.91c-5.68,5.45-27.44,28.34-28.57,32a10.58,10.58,0,0,1-1.58,3.16h0a8.26,8.26,0,0,1-2.14,2.06l-14.32,9.29-5.61-5,78.48-81.55,63.15-76.61.58.52C732.77,156.53,734.71,162.63,734.71,162.63Z"/><path class="cls-25" d="M650.83,259.17c-2.42-2.58-6-5.9-10-9.63a49.52,49.52,0,0,0-8.07-6.08c-.25.33-4.85,6.45-9.44,12.58-4.72,6.29-24.78,30.68-28.32,32.26a9.93,9.93,0,0,0-3.18,2.19c1.77,1.91,4.2,4.53,6.92,7.44a34.74,34.74,0,0,0,10.47,7.54h0Z"/><path class="cls-26" d="M639.05,260l-1.17,1.3L626,274.55l-.51.57-12.06,14.32a.81.81,0,0,1-1.15.09L608,285.86a.81.81,0,0,1-.1-1.13l10.9-13.15,1.73-1.91,12-13.23,1.09-1.2a.82.82,0,0,1,1.13-.07l4.28,3.67A.81.81,0,0,1,639.05,260Z"/><path class="cls-27" d="M638.83,259.87l-1.09,1.21-5-4.48,1-1.11a.75.75,0,0,1,1-.06l4,3.38A.74.74,0,0,1,638.83,259.87Z"/><path class="cls-28" d="M626,274.55l-.51.57-12.06,14.32a.81.81,0,0,1-1.15.09L608,285.86a.81.81,0,0,1-.1-1.13l10.9-13.15,1.73-1.91Z"/><path class="cls-16" d="M358.14,267.34h13a0,0,0,0,1,0,0v31.3a0,0,0,0,1,0,0h-13a2.68,2.68,0,0,1-2.68-2.68V270A2.68,2.68,0,0,1,358.14,267.34Z"/></g></g></svg>