<svg xmlns="http://www.w3.org/2000/svg" viewBox="0 0 807.11 583.87"><defs><style>.cls-1{fill:#b371ff;}.cls-2{fill:#333;}.cls-3{fill:#29abe2;}.cls-4{fill:#efefef;}.cls-5{fill:#3d3d3d;}.cls-6{fill:#fcfcfc;}.cls-7{fill:#acb3bb;}.cls-19,.cls-8{fill:#9e005d;}.cls-9{fill:#ffd55a;}.cls-10{fill:#36a4c5;}.cls-11{fill:#69c6ba;}.cls-12{fill:#e2e3e7;}.cls-13{fill:#ccd2db;}.cls-14,.cls-23,.cls-25{fill:none;}.cls-14{stroke:#3d3d3d;stroke-width:2px;}.cls-14,.cls-18,.cls-19,.cls-20,.cls-21,.cls-23,.cls-25,.cls-26{stroke-miterlimit:10;}.cls-15{fill:#3e5871;}.cls-16{fill:#fff;}.cls-17{fill:#c4c3c8;}.cls-18{fill:#680e55;}.cls-18,.cls-19{stroke:#42210b;stroke-width:4px;}.cls-20{fill:#f9c356;}.cls-20,.cls-21,.cls-23,.cls-25,.cls-26{stroke:#603813;}.cls-21,.cls-24,.cls-26{fill:#fbe754;}.cls-22{fill:#f7c353;}.cls-25,.cls-26{stroke-width:0.25px;}</style></defs><g id="Layer_2" data-name="Layer 2"><g id="Layer_1-2" data-name="Layer 1"><rect class="cls-1" width="807.11" height="583.87" rx="15.99"/><path class="cls-2" d="M562.7,330.45H406l0,65.63,35.65.47a24,24,0,0,1,21.95,14.94h0l-144-1.34h0A23.2,23.2,0,0,1,341,396.08h36.26l.37-65.63H217.26a18.15,18.15,0,0,1-18.15-18.15V75.36a18.15,18.15,0,0,1,18.15-18.15H562.7a18.14,18.14,0,0,1,18.14,18.15V312.3A18.14,18.14,0,0,1,562.7,330.45Z"/><rect class="cls-2" x="178.32" y="22.77" width="421.05" height="301.82" rx="26.22"/><path class="cls-3" d="M198.44,37.83h379.2a4.8,4.8,0,0,1,4.8,4.8V261.21a0,0,0,0,1,0,0H194.64a0,0,0,0,1,0,0V41.63A3.8,3.8,0,0,1,198.44,37.83Z"/><path class="cls-4" d="M599.37,276.27v22.1a26.21,26.21,0,0,1-26.22,26.22H204.54a26.21,26.21,0,0,1-26.22-26.22v-22.1Z"/><polygon class="cls-5" points="582.28 341.34 587.43 310.47 604.58 310.47 611.44 341.34 582.28 341.34"/><path class="cls-5" d="M641.25,339.93c-3.07,0-6.13,0-9.19,0-1.94,0-2.44-.74-1.9-2.78,1.08-4.08,3.35-6.23,7.28-6.29,4.24-.07,8.48-.12,12.72,0,4.57.13,7.44,3.17,7.88,8,.18,2-.52,2.92-2.42,2.32C650.9,339.67,646.07,339.93,641.25,339.93Z"/><path class="cls-5" d="M548.57,339.94c-4.83,0-9.67-.26-14.4,1.2-2.21.68-2.69-.43-2.28-2.63,1-5.14,3.21-7.44,8.17-7.62,4.25-.16,8.5,0,12.75-.05,2.07,0,3.62,1.16,5,2.56s2.43,3.6,1.93,5.43c-.57,2.12-2.86.94-4.39,1.06C553.07,340.07,550.82,339.94,548.57,339.94Z"/><path class="cls-6" d="M594.8,338.78h45q32.1,0,41.81,30.35,9.89,30.94,19.7,61.9a30.65,30.65,0,0,1-54.64,26.43c-4.47-6.64-8.7-13.44-12.86-20.27-1.42-2.33-2.54-3-5.24-1.57a17.23,17.23,0,0,1-25.22-13.8c-.28-2.81-1.32-3.6-3.94-3.45a76.59,76.59,0,0,1-9.34,0c-2.68-.18-3.63.75-3.91,3.48a17.24,17.24,0,0,1-19.9,15.53,12.4,12.4,0,0,1-5-1.6c-2.86-1.95-4.21-.83-5.73,1.7-4,6.56-8.08,13-12.27,19.46a30.67,30.67,0,0,1-54.92-26.23q10.06-31.57,20.12-63.17c5.72-17.9,20.44-28.69,39.29-28.75C563.44,338.74,579.12,338.78,594.8,338.78ZM547,354.46c-14-.64-24.68,11.67-24.52,24,.18,13.62,10.66,24.63,24.08,24.76a24.75,24.75,0,0,0,24.8-24.47A24.26,24.26,0,0,0,547,354.46Zm73.59,77.07a11.16,11.16,0,0,0,11.56-11.15,11.52,11.52,0,1,0-11.56,11.15Zm-51.91,0a11.27,11.27,0,0,0,11.71-11.37,11.52,11.52,0,0,0-23-.35A11.15,11.15,0,0,0,568.72,431.52Zm48.83-53.42a8.58,8.58,0,0,0,8.22,8.42,8.48,8.48,0,0,0,.24-17A8.54,8.54,0,0,0,617.55,378.1Zm25.52,8.57a8.37,8.37,0,1,0,8.41,8.54A8.41,8.41,0,0,0,643.07,386.67Zm23.87-7.35c0-4.94-3.11-8.07-8.06-8.11s-8.6,3.37-8.63,8.1a8.77,8.77,0,0,0,8.43,8.55A8.4,8.4,0,0,0,666.94,379.32Zm-16.84-17a8.33,8.33,0,0,0-8.51-8.33,8.21,8.21,0,0,0-8.22,8.58,8.08,8.08,0,0,0,8.28,8.13A8.29,8.29,0,0,0,650.1,362.34Zm-55,11.62h0c2.54,0,5.09,0,7.63,0,2.19,0,2.07-1.5,2.07-3s.14-3-2.06-3c-5.19,0-10.39,0-15.59,0-2.46,0-2.28,1.85-2.35,3.55-.09,2,.93,2.46,2.67,2.42C590,373.91,592.54,374,595.09,374Zm-.3-12v0h7.63c1.92,0,2.45-1.2,2.36-2.86-.07-1.24.41-3-1.61-3-5.41-.1-10.84-.17-16.25,0-2.25.08-2,2.2-2.1,3.85s.92,2,2.34,2C589.7,361.91,592.25,361.93,594.79,361.93Z"/><path class="cls-7" d="M547,354.46a24.26,24.26,0,0,1,24.36,24.33,24.75,24.75,0,0,1-24.8,24.47c-13.42-.13-23.9-11.14-24.08-24.76C522.36,366.13,533.06,353.82,547,354.46ZM534.2,373.27c-1,0-2,.09-3,0-2.92-.31-3.87,1-3.86,3.86,0,7.49-.09,7.49,7.49,7.49,6.57,0,6.55,0,6.57,6.42,0,7.51-.87,6.86,7,7,2.92.06,4.08-1.28,4.25-3.83.15-2.33.13-4.67.08-7,0-1.79.62-2.72,2.51-2.63,1,.05,2,0,3,0,9,.05,7.84.49,7.9-8.55,0-2-.93-2.82-2.86-2.79-2.22,0-4.45-.12-6.66,0-2.85.21-4.08-.84-3.93-3.8a23.87,23.87,0,0,0-.47-7.94c-.34-1.18-.75-2-2.07-2.25-7-1.48-8.74-.09-8.73,6.88S541.4,373.27,534.2,373.27Z"/><path class="cls-5" d="M620.63,431.53a11.3,11.3,0,0,1-11.48-11.29,11.52,11.52,0,1,1,23,.14A11.16,11.16,0,0,1,620.63,431.53Z"/><path class="cls-5" d="M568.72,431.52A11.15,11.15,0,0,1,557.4,419.8a11.52,11.52,0,0,1,23,.35A11.27,11.27,0,0,1,568.72,431.52Z"/><path class="cls-8" d="M617.55,378.1a8.54,8.54,0,0,1,8.46-8.54,8.48,8.48,0,0,1-.24,17A8.58,8.58,0,0,1,617.55,378.1Z"/><path class="cls-9" d="M643.07,386.67a8.37,8.37,0,1,1-8.54,8.39A8.44,8.44,0,0,1,643.07,386.67Z"/><path class="cls-10" d="M666.94,379.32a8.4,8.4,0,0,1-8.26,8.54,8.77,8.77,0,0,1-8.43-8.55c0-4.73,3.66-8.13,8.63-8.1S667,374.38,666.94,379.32Z"/><path class="cls-11" d="M650.1,362.34a8.29,8.29,0,0,1-8.45,8.38,8.08,8.08,0,0,1-8.28-8.13,8.21,8.21,0,0,1,8.22-8.58A8.33,8.33,0,0,1,650.1,362.34Z"/><path class="cls-12" d="M595.09,374c-2.55,0-5.09,0-7.63,0-1.74,0-2.76-.46-2.67-2.42.07-1.7-.11-3.53,2.35-3.55,5.2-.05,10.4,0,15.59,0,2.2,0,2.06,1.52,2.06,3s.12,3-2.07,3c-2.54,0-5.09,0-7.63,0Z"/><path class="cls-12" d="M594.79,361.93c-2.54,0-5.09,0-7.63,0-1.42,0-2.4-.38-2.34-2s-.15-3.77,2.1-3.85c5.41-.2,10.84-.13,16.25,0,2,0,1.54,1.78,1.61,3,.09,1.66-.44,2.85-2.36,2.86h-7.63Z"/><path class="cls-13" d="M534.2,373.27c7.2,0,7.2,0,7.2-7.08s1.78-8.36,8.73-6.88c1.32.29,1.73,1.07,2.07,2.25a23.87,23.87,0,0,1,.47,7.94c-.15,3,1.08,4,3.93,3.8,2.21-.15,4.44,0,6.66,0,1.93,0,2.87.82,2.86,2.79-.06,9,1.12,8.6-7.9,8.55-1,0-2,.05-3,0-1.89-.09-2.55.84-2.51,2.63,0,2.33.07,4.67-.08,7-.17,2.55-1.33,3.89-4.25,3.83-7.85-.18-7,.47-7-7,0-6.41,0-6.41-6.57-6.42-7.58,0-7.48,0-7.49-7.49,0-2.87.94-4.17,3.86-3.86C532.19,373.36,533.2,373.27,534.2,373.27Zm15.89,5.21c-.07-1.86-1-3.17-3-3.12a3.43,3.43,0,0,0-3.61,3.54c-.09,2.23,1.36,3.12,3.44,3.06S550.08,380.67,550.09,378.48Zm-14.64.31c-.41-1,.61-3.14-1.67-3.11a3.37,3.37,0,0,0-3.33,2.8c-.08,1.72,1.56,3,3.22,3.3C535.85,382.14,535.2,380.19,535.45,378.79Zm23.18,0c.59.88-.66,3,1.45,2.86a3,3,0,0,0,0-6.06C558,375.52,559.1,377.57,558.63,378.81Zm-12,11.76c-1,.45-2.88-.68-2.75,1.24.1,1.61,1.39,3.33,3.13,3.25a3.3,3.3,0,0,0,2.75-3.21C549.73,389.88,547.73,391,546.63,390.57Zm.54-23.89c.88-.35,2.69.62,2.45-1.22-.19-1.41-1-3.29-2.77-3.23-1.54,0-2.42,1.82-2.49,3.13C544.25,367.28,546.13,366.36,547.17,366.68Z"/><path class="cls-12" d="M550.09,378.48c0,2.19-1,3.43-3.17,3.48s-3.53-.83-3.44-3.06a3.43,3.43,0,0,1,3.61-3.54C549.12,375.31,550,376.62,550.09,378.48Z"/><path class="cls-12" d="M535.45,378.79c-.25,1.4.4,3.35-1.78,3-1.66-.27-3.3-1.58-3.22-3.3a3.37,3.37,0,0,1,3.33-2.8C536.06,375.65,535,377.77,535.45,378.79Z"/><path class="cls-12" d="M558.63,378.81c.47-1.24-.66-3.29,1.42-3.2a3,3,0,0,1,0,6.06C558,381.8,559.22,379.69,558.63,378.81Z"/><path class="cls-12" d="M546.63,390.57c1.1.42,3.1-.69,3.13,1.28a3.3,3.3,0,0,1-2.75,3.21c-1.74.08-3-1.64-3.13-3.25C543.75,389.89,545.67,391,546.63,390.57Z"/><path class="cls-12" d="M547.17,366.68c-1-.32-2.92.6-2.81-1.32.07-1.31.95-3.08,2.49-3.13,1.79-.06,2.58,1.82,2.77,3.23C549.86,367.3,548.05,366.33,547.17,366.68Z"/><path class="cls-14" d="M596.86,311.87s2.26-12.63-10.37-12.63H498.08s-7-1.4-7-8.42,5.61-8.42,5.61-8.42l161.4,3.19s8.42,0,8.42-7-8.42-8.42-8.42-8.42H607.54s-12.63,1.4-12.63-11.23"/><rect class="cls-15" x="204.93" y="45.57" width="140.64" height="212.97"/><path class="cls-16" d="M247,66.46v9.13l-12.6,6.91L247,89.42V98.5l-22.3-12.2V78.63Z"/><path class="cls-16" d="M279.38,53.18l-12.22,53.21h-6l12.18-53.21Z"/><path class="cls-16" d="M294.88,98.5V89.37l12.6-6.92-12.57-6.91V66.46l22.28,12.2v7.67Z"/><rect class="cls-16" x="212.53" y="125.4" width="125.44" height="11.4"/><rect class="cls-16" x="212.53" y="148.2" width="106.43" height="11.4"/><rect class="cls-16" x="212.53" y="171.01" width="117.83" height="11.4"/><rect class="cls-16" x="212.53" y="193.82" width="79.82" height="11.4"/><rect class="cls-16" x="212.53" y="216.62" width="53.22" height="11.4"/><rect class="cls-16" x="212.53" y="239.43" width="125.44" height="11.4"/><circle class="cls-17" cx="387.38" cy="300.25" r="11.4"/><path class="cls-18" d="M516.62,194.56c0,10.73-1.19,23.85-1.19,23.85l-.6.59h0A93.54,93.54,0,0,1,494,233.91c-10.71,5.36-29.13,11.68-32.76,12.91l-.63.21s-22.65-9.54-33.39-15.5a129.28,129.28,0,0,1-19.08-13.12s0-.32-.08-.89c-.41-4.8-2.3-27.56-2.3-36.08,0-8.27,1.79-21,2.26-24.26.08-.5.12-.78.12-.78s25-16.69,33.39-21.46a184,184,0,0,1,18.4-8.77c1.18-.5,1.88-.77,1.88-.77h0l.18.08c2.12,1.08,21.93,11,33.2,17.79a167.21,167.21,0,0,1,19.08,13.12s0,.28.07.78C514.69,161.71,516.62,184.9,516.62,194.56Z"/><path class="cls-18" d="M461.17,126,426.7,164a.25.25,0,0,1-.27.06L408,157.18l-.35-.13.47-.65s25-16.69,33.39-21.46a183.85,183.85,0,0,1,18.38-8.76h.06Z"/><path class="cls-18" d="M426.51,164.38l-18.1,52a.25.25,0,0,1-.49-.05c-.55-6.56-2.2-26.95-2.2-34.91,0-8.27,1.79-21,2.26-24.26l-.35-.13.47-.65,18.27,7.66A.26.26,0,0,1,426.51,164.38Z"/><path class="cls-18" d="M462.12,223.75a.25.25,0,0,1,.23.27l-1.15,22.8-.63.21s-22.65-9.54-33.39-15.5a131.06,131.06,0,0,1-18.46-12.6.25.25,0,0,1,.2-.44Z"/><path class="cls-18" d="M514.08,219.07a.25.25,0,0,1,.2.43A92.81,92.81,0,0,1,494,233.91c-10.4,5.21-28.08,11.32-32.41,12.79a.25.25,0,0,1-.33-.25L462.35,224a.25.25,0,0,1,.23-.24Z"/><path class="cls-19" d="M514.83,219h0l-52,4.72a.24.24,0,0,1-.24-.37l34.05-58.72a.25.25,0,0,1,.46.05Z"/><path class="cls-19" d="M516.62,194.56c0,10.73-1.19,23.85-1.19,23.85l-.6.59L497,163.2a.26.26,0,0,1,.16-.32l16.82-5.6a.25.25,0,0,1,.33.21C514.77,162.68,516.62,185.11,516.62,194.56Z"/><path class="cls-19" d="M514.31,157.18l-17.22,5.73a.25.25,0,0,1-.26-.06L479.5,144.93,461.19,126l0,0,.13-.08.58-.37.08-.05c2.12,1.08,21.93,11,33.2,17.79a167.21,167.21,0,0,1,19.08,13.12S514.26,156.68,514.31,157.18Z"/><path class="cls-19" d="M427.15,164.15h69.23a.25.25,0,0,0,.18-.42L462,125.6a.25.25,0,0,0-.37,0L427,163.73A.25.25,0,0,0,427.15,164.15Z"/><path class="cls-19" d="M462.14,223.41l-35.33-58.88a.26.26,0,0,1,.22-.38h69.48a.26.26,0,0,1,.22.38l-34.15,58.88A.25.25,0,0,1,462.14,223.41Z"/><path class="cls-20" d="M511.27,116.32s15.6,7.62,28.36-.16S557,95.93,553.5,82s-10-18.1-14.94-21.77-24.78-1.67-24.78-1.67Z"/><path class="cls-21" d="M542.18,79.23C537,61.35,525,56.28,511.11,59.69c-10.64,2.62-21.17,17.62-16,36.35,4.92,17.72,18.74,25.16,32.3,20.58S546.92,95.52,542.18,79.23Z"/><path class="cls-22" d="M522.15,67.41s-15.67,3.13-15.93,17.66,5.21,18.72,7.95,21.36a22.55,22.55,0,0,0,4.42,3.07c-7.45-.35-14-6.74-16.08-17.92-2.57-13.89,4.9-23.75,11.92-24.71A17.2,17.2,0,0,1,522.15,67.41Z"/><path class="cls-23" d="M533.74,83.56c2.37,12.09-2.17,23.45-11.16,25.57a14,14,0,0,1-4,.37c-7.45-.35-14-6.74-16.08-17.92-2.57-13.89,4.9-23.75,11.92-24.71a17.2,17.2,0,0,1,7.72.54C527.67,69.19,531.91,74.26,533.74,83.56Z"/><path class="cls-20" d="M387.88,54.66s-15.32,8.17-16.5,23.07,6.22,25.93,19.55,31.25,20.54,2.48,26.39.66,15.88-19.1,15.88-19.1Z"/><path class="cls-21" d="M399.82,101.44c17.54,6.26,28.65-.45,34-13.72C438,77.57,432,60.24,413.77,53.47c-17.25-6.4-31.37.44-35.61,14.11S383.84,95.73,399.82,101.44Z"/><path class="cls-22" d="M421.13,92.13s6.65-14.52-5-23.24-18.22-6.77-22-6.09a23.23,23.23,0,0,0-5.08,1.78c4.66-5.82,13.68-7.4,23.95-2.52,12.76,6.06,16.37,17.9,13,24.14A17.23,17.23,0,0,1,421.13,92.13Z"/><path class="cls-23" d="M401.25,92.06c-11.19-5.16-17.72-15.5-14.17-24a14.06,14.06,0,0,1,2-3.45c4.66-5.82,13.68-7.4,23.95-2.52,12.76,6.06,16.37,17.9,13,24.14a17.23,17.23,0,0,1-5,5.93C416.46,95.57,409.86,96,401.25,92.06Z"/><path class="cls-24" d="M453.74,184.54h-9.32q-1.23,0-1.23-.69a1,1,0,0,1,.26-.67q.26-.3,1.68-1.65a22.15,22.15,0,0,0,3.92-4.64,3.83,3.83,0,0,0,.66-1.89,1.48,1.48,0,0,0-.4-1.08,1.44,1.44,0,0,0-1.07-.41,2.2,2.2,0,0,0-1,.17,12.81,12.81,0,0,0-1.45,1.12,1.22,1.22,0,0,1-.79.25,1.7,1.7,0,0,1-1.19-.51,1.44,1.44,0,0,1-.53-1.08,2.11,2.11,0,0,1,.49-1.21,5.86,5.86,0,0,1,1.3-1.28,10.93,10.93,0,0,1,6.55-2.12,8.83,8.83,0,0,1,4.53,1.05,3.66,3.66,0,0,1,1.31,1.34,3.7,3.7,0,0,1,.49,1.81c0,1.59-1.11,3.33-3.32,5.2-.78.66-1.17,1.15-1.17,1.48a.81.81,0,0,0,.35.65,1.47,1.47,0,0,0,.87.26,3,3,0,0,0,2.14-.93,5.11,5.11,0,0,1,.64-.56.88.88,0,0,1,.43-.1c.81,0,1.21.69,1.21,2.06a6,6,0,0,1-.39,2.08,5.76,5.76,0,0,1-1.07,1.82,2,2,0,0,1-1.55.82,1,1,0,0,1-.55-.14,2.24,2.24,0,0,1-.47-.54,1.28,1.28,0,0,0-.48-.5A2.51,2.51,0,0,0,453.74,184.54Z"/><path class="cls-25" d="M453.74,184.54h-9.32q-1.23,0-1.23-.69a1,1,0,0,1,.26-.67q.26-.3,1.68-1.65a22.15,22.15,0,0,0,3.92-4.64,3.83,3.83,0,0,0,.66-1.89,1.48,1.48,0,0,0-.4-1.08,1.44,1.44,0,0,0-1.07-.41,2.2,2.2,0,0,0-1,.17,12.81,12.81,0,0,0-1.45,1.12,1.22,1.22,0,0,1-.79.25,1.7,1.7,0,0,1-1.19-.51,1.44,1.44,0,0,1-.53-1.08,2.11,2.11,0,0,1,.49-1.21,5.86,5.86,0,0,1,1.3-1.28,10.93,10.93,0,0,1,6.55-2.12,8.83,8.83,0,0,1,4.53,1.05,3.66,3.66,0,0,1,1.31,1.34,3.7,3.7,0,0,1,.49,1.81c0,1.59-1.11,3.33-3.32,5.2-.78.66-1.17,1.15-1.17,1.48a.81.81,0,0,0,.35.65,1.47,1.47,0,0,0,.87.26,3,3,0,0,0,2.14-.93,5.11,5.11,0,0,1,.64-.56.88.88,0,0,1,.43-.1c.81,0,1.21.69,1.21,2.06a6,6,0,0,1-.39,2.08,5.76,5.76,0,0,1-1.07,1.82,2,2,0,0,1-1.55.82,1,1,0,0,1-.55-.14,2.24,2.24,0,0,1-.47-.54,1.28,1.28,0,0,0-.48-.5A2.51,2.51,0,0,0,453.74,184.54Z"/><path class="cls-26" d="M471.69,168.75a7.57,7.57,0,0,1,3.61.92,7.86,7.86,0,0,1,3.52,3.66,8.66,8.66,0,0,1,.86,3.79,7.77,7.77,0,0,1-7.71,7.8,7.34,7.34,0,0,1-5.17-2,8.11,8.11,0,0,1-2.53-6.26,7.83,7.83,0,0,1,2.31-6A7.12,7.12,0,0,1,471.69,168.75Zm-.32,4.08c-.85,0-1.27.72-1.27,2.16a11.63,11.63,0,0,0,1.08,5.09,1.27,1.27,0,0,0,1.13.88c.84,0,1.25-.74,1.25-2.21a13.9,13.9,0,0,0-.27-2.63,9.14,9.14,0,0,0-.68-2.28A1.47,1.47,0,0,0,471.37,172.83Z"/></g></g></svg>