<svg xmlns="http://www.w3.org/2000/svg" viewBox="0 0 807.11 583.87"><defs><style>.cls-1{fill:#444cad;}.cls-2{fill:#333;}.cls-3{fill:#d2f5f9;}.cls-19,.cls-4{fill:#29abe2;}.cls-22,.cls-5{fill:#edbf4c;}.cls-6{fill:#9e005d;}.cls-7{fill:#fff;}.cls-8{fill:#e17074;}.cls-9{fill:#db5657;}.cls-10{fill:#ccc;}.cls-11{fill:#b3b3b3;}.cls-12{fill:#999;}.cls-13{fill:#c69c6d;}.cls-14{fill:#efefef;}.cls-15{fill:#666;}.cls-16{fill:none;}.cls-16,.cls-21{stroke:#000;}.cls-16,.cls-18,.cls-19,.cls-20,.cls-21,.cls-22{stroke-miterlimit:10;}.cls-17,.cls-18{fill:#bc2485;}.cls-18,.cls-19,.cls-20,.cls-22{stroke:#333;stroke-width:0.25px;}.cls-20{fill:#22b573;}.cls-21{stroke-width:0.5px;}</style></defs><g id="Layer_2" data-name="Layer 2"><g id="Layer_1-2" data-name="Layer 1"><rect class="cls-1" width="807.11" height="583.87" rx="15.99"/><path class="cls-2" d="M285.16,151.33h351a5.31,5.31,0,0,1,5.31,5.31V409.57a0,0,0,0,1,0,0H279.86a0,0,0,0,1,0,0V156.63A5.31,5.31,0,0,1,285.16,151.33Z"/><path d="M238.75,409.57H686.47a1.66,1.66,0,0,1,1.66,1.66v23.34A5.13,5.13,0,0,1,683,439.7H242.21a5.13,5.13,0,0,1-5.13-5.13V411.23a1.66,1.66,0,0,1,1.66-1.66Z"/><rect class="cls-3" x="301.24" y="179.3" width="322.73" height="202.29"/><path class="cls-4" d="M427.61,408.28h70a1.94,1.94,0,0,1,1.94,1.94v6.67a0,0,0,0,1,0,0H425.67a0,0,0,0,1,0,0v-6.67A1.94,1.94,0,0,1,427.61,408.28Z" transform="translate(925.21 825.17) rotate(180)"/><rect class="cls-4" x="291.52" y="159.93" width="112.76" height="8.61" rx="0.97"/><rect class="cls-4" x="415.95" y="159.49" width="23.33" height="8.61" rx="0.97"/><rect class="cls-5" x="331.61" y="268.04" width="37.38" height="103.35"/><rect class="cls-5" x="390.98" y="279.03" width="37.38" height="92.36"/><rect class="cls-5" x="448.15" y="325.21" width="37.38" height="46.18"/><rect class="cls-5" x="503.12" y="246.05" width="37.38" height="125.34"/><rect class="cls-5" x="564.69" y="285.63" width="37.38" height="85.76"/><circle class="cls-6" cx="376.68" cy="315.32" r="12.09"/><circle class="cls-6" cx="451.45" cy="326.31" r="12.09"/><circle class="cls-6" cx="594.38" cy="264.74" r="12.09"/><rect class="cls-6" x="305.22" y="336.21" width="79.16" height="10.99" transform="translate(-140.63 343.89) rotate(-45)"/><rect class="cls-6" x="383.92" y="314.31" width="62.18" height="10.99" transform="translate(46.36 -52.49) rotate(7.66)"/><rect class="cls-6" x="451.77" y="332.45" width="52.84" height="10.99" transform="translate(204.7 -179.81) rotate(26.91)"/><rect class="cls-6" x="479.6" y="302.87" width="128.23" height="10.99" transform="translate(-64.44 452.8) rotate(-42.92)"/><rect class="cls-2" x="314.85" y="190.85" width="178.86" height="27.22"/><rect class="cls-2" x="314.85" y="229.73" width="116.65" height="15.55"/><rect class="cls-7" x="529.83" y="230.39" width="81.69" height="11.35" transform="translate(1184.94 172.17) rotate(151.59)"/><rect class="cls-7" x="524.42" y="245.21" width="102.11" height="11.35" transform="translate(1201 197.74) rotate(151.59)"/><rect class="cls-8" x="635.16" y="283.63" width="102.69" height="20.81" transform="translate(1260.48 771.82) rotate(-163.41)"/><rect class="cls-9" x="634.28" y="294.73" width="102.24" height="10.04" transform="translate(1256.7 782.72) rotate(-163.41)"/><rect class="cls-10" x="637.44" y="274.63" width="40.27" height="17.9" transform="translate(1206.82 743.1) rotate(-163.41)"/><rect class="cls-11" x="635.58" y="285.56" width="40.09" height="10.73" transform="translate(1200.91 756.93) rotate(-163.41)"/><path class="cls-12" d="M528.64,294.27a64.1,64.1,0,1,1,86.88,25.88A64.19,64.19,0,0,1,528.64,294.27Zm15-8.09a47.08,47.08,0,1,0,19-63.82A47.14,47.14,0,0,0,543.61,286.18Z"/><rect class="cls-13" x="143.54" y="35.16" width="216.89" height="292.81" rx="1.83"/><rect class="cls-14" x="162.52" y="59.56" width="178.94" height="249.43" rx="0.39"/><path class="cls-15" d="M273.49,43.29a21.69,21.69,0,1,0-37.58,0H189.63V65H314.35V43.29H273.49Z"/><rect class="cls-16" x="184.21" y="136.69" width="32.53" height="32.53" rx="0.74"/><rect x="230.3" y="139.4" width="92.18" height="10.84"/><rect x="230.3" y="161.09" width="92.18" height="10.84"/><rect class="cls-16" x="184.21" y="196.33" width="32.53" height="32.53" rx="0.74"/><rect x="230.3" y="199.04" width="92.18" height="10.84"/><rect x="230.3" y="220.73" width="92.18" height="10.84"/><rect class="cls-16" x="184.21" y="261.4" width="32.53" height="32.53" rx="0.74"/><rect x="230.3" y="264.11" width="92.18" height="10.84"/><rect x="230.3" y="285.8" width="92.18" height="10.84"/><path class="cls-17" d="M201.48,167.7l-19.3-18.54,7.73-6.39,9,10.93c11.3-12.71,22.42-25.28,38.27-32.23C220.82,133.52,209.87,149.75,201.48,167.7Z"/><path class="cls-17" d="M201.48,225.37l-19.3-18.54,7.73-6.39,9,10.94c11.3-12.71,22.42-25.28,38.27-32.23C220.82,191.19,209.87,207.42,201.48,225.37Z"/><path class="cls-15" d="M529,288.27a64.1,64.1,0,1,1,86.88,25.88A64.17,64.17,0,0,1,529,288.27Zm15-8.1a47.08,47.08,0,1,0,19-63.81A47.13,47.13,0,0,0,543.92,280.17Z"/><circle class="cls-18" cx="194.08" cy="92.42" r="21.93"/><path d="M201.54,94.7l-2.66.15a10.35,10.35,0,0,1-1.71,11.49l-2.57-2.58a6.61,6.61,0,0,0-9.36-9.31l-2.57-2.56A9.2,9.2,0,0,1,185.54,90c.72-.29,1.47-.46,2.2-.7a.78.78,0,0,0,.39-.21q2.37-2.67,4.72-5.36l.09-.13L190.14,82l-3.32,3a2,2,0,1,1-2.77-2.88c1.51-1.37,3-2.71,4.56-4.06a1.93,1.93,0,0,1,2.38-.15l6.2,3.6c.91.53,1.79,1.09,2.72,1.57a2.35,2.35,0,0,1,.6,3.52c-1.16,1.34-2.33,2.66-3.5,4-.1.12-.2.23-.33.4.13,0,.22,0,.31,0,2.11-.11,4.23-.18,6.34-.36a2.1,2.1,0,0,1,2.38,2.35c-.31,3.37-.55,6.74-.83,10.11a2,2,0,0,1-1.89,1.88,2,2,0,0,1-2-1.51,4.3,4.3,0,0,1,0-1.19c.19-2.44.39-4.89.6-7.33C201.55,94.85,201.54,94.81,201.54,94.7Z"/><path d="M196,107.41a10.2,10.2,0,0,1-14.36-14.28l2.57,2.59a6.81,6.81,0,0,0-1,2.7,6.59,6.59,0,0,0,10,6.56c.1,0,.31-.08.37,0C194.3,105.76,195.11,106.57,196,107.41Z"/><path d="M201.47,82.59a3.34,3.34,0,1,1,3.34-3.35A3.31,3.31,0,0,1,201.47,82.59Z"/><circle class="cls-19" cx="232.33" cy="92.24" r="21.93"/><path d="M246.38,86.6a15.44,15.44,0,0,1-4.66,11.33,3.47,3.47,0,0,0-1.31,3.27,3.67,3.67,0,0,1,0,.74c-.19,5.07-4.37,7.54-9,5.3a5.59,5.59,0,0,1-2.65-5.39c.06-.31.46-.54.7-.81a5.34,5.34,0,0,1,.76.74c.12.18,0,.49.08.73.41,2.93,1.42,3.79,4.42,3.79,2.63,0,4.14-1.19,4-3.83a8.81,8.81,0,0,1,2.72-6.69c3.15-3.48,4-7.76,3-12.33a5.79,5.79,0,0,0-4.86-4.79,14.81,14.81,0,0,0-4.55-.2,6.76,6.76,0,0,0-6,6.37,8.64,8.64,0,0,1-.13,1.62,6.07,6.07,0,0,1-.78,1.34c-.26-.47-.72-.93-.74-1.41-.24-5.59,3.39-9.43,9-9.58C243,76.62,246.52,80.11,246.38,86.6Z"/><path d="M236.09,96.26a11.59,11.59,0,0,1,.57,2.37,2.68,2.68,0,0,1-2.46,2.53A3.39,3.39,0,0,1,231,99a1,1,0,0,1,.33-.86,1,1,0,0,1,.88.12c.31.22.45.74.77.87.49.21,1.21.43,1.57.21a1.66,1.66,0,0,0,.35-1.5,3.43,3.43,0,0,0-1.8-2.31A4.38,4.38,0,0,1,231,90.18,4.63,4.63,0,0,1,235.79,87a4.63,4.63,0,0,1,1.56,8.86C237,96,236.52,96.11,236.09,96.26Z"/><path d="M236.78,79.21c4.63,0,7.84,3.75,7,8.58a35.89,35.89,0,0,1-2.07,6.29c-.14.37-.77.55-1.18.82a4.21,4.21,0,0,1-.16-1.51,53.69,53.69,0,0,0,1.87-6A5.5,5.5,0,0,0,235,81.05c-2.16.72-3.34,2.44-3.58,5,0,.45-.53.85-.8,1.27-.23-.41-.65-.83-.66-1.25A6.62,6.62,0,0,1,236.78,79.21Z"/><path d="M215.38,91.45A12.83,12.83,0,0,1,219,83.78c.32-.35,1-.39,1.47-.58-.12.54-.07,1.22-.39,1.6a12.5,12.5,0,0,0,0,16.66,4.67,4.67,0,0,1,.49,1.61c-.56-.22-1.3-.27-1.66-.67C216.51,99.76,215.34,96.63,215.38,91.45Z"/><path d="M218.05,93.18a11,11,0,0,1,2.84-7.42c.33-.37,1-.4,1.54-.59-.11.51-.07,1.14-.37,1.51-3.3,4.1-3.28,8.8,0,13,.28.36.21,1,.3,1.5-.5-.18-1.16-.22-1.48-.58A11.08,11.08,0,0,1,218.05,93.18Z"/><path d="M224.14,86.7a5.81,5.81,0,0,1,.5,1.36c0,.22-.3.48-.48.71a6.83,6.83,0,0,0-.07,8.74,4.29,4.29,0,0,1,.37,1.62c-.53-.23-1.22-.31-1.55-.7a8.35,8.35,0,0,1,0-10.63C223.24,87.47,223.59,87.21,224.14,86.7Z"/><path d="M226.07,89c.08.68.34,1.28.14,1.53a4.09,4.09,0,0,0,0,5.52c.17.22-.09.76-.14,1.16-.35-.08-.79-.06-1-.26-1.9-1.61-1.9-5.8,0-7.34A10.59,10.59,0,0,1,226.07,89Z"/><circle class="cls-20" cx="271.84" cy="92.81" r="21.93"/><path class="cls-21" d="M282.16,83.92c2.06,1.72,4,3.31,5.9,4.92a1.12,1.12,0,0,1,.42.58c0,.19-.16.59-.26.59a1.51,1.51,0,0,1-.92-.24c-1.26-1-2.47-2.14-3.74-3.15a25.83,25.83,0,0,0-2.3-1.51l-2.14,2.14c1.38.79,2.87,1.49,4.19,2.43,1.68,1.19,3.22,2.58,4.81,3.89.51.42.5.84,0,1.3a28,28,0,0,1-12,7.24,17.08,17.08,0,0,1-10.6-.42,1.18,1.18,0,0,0-1.48.35c-1.54,1.59-3.11,3.14-4.67,4.7-.12.11-.22.29-.36.32a7.5,7.5,0,0,1-.94.1c0-.31-.06-.74.11-.92,1.12-1.2,2.28-2.34,3.44-3.5l23.88-23.87c.13-.14.27-.27.41-.4.31-.33.67-.67,1.11-.25s.09.78-.23,1.1l-2,2ZM277,89.37l-10.2,10.19c2.11,2.63,7,2.64,9.83,0S279.69,91.78,277,89.37Zm10.1,4.84A25.94,25.94,0,0,0,278,88.34c3,4,2.89,8-.32,12A28.84,28.84,0,0,0,287.05,94.21Z"/><path class="cls-21" d="M265.09,88c-2,.32-7.59,3.94-9.18,6a29.78,29.78,0,0,0,6,4.5c.47.27,1.27.47.8,1.21s-1,.09-1.41-.16A30.22,30.22,0,0,1,255,94.77c-.8-.78-.8-.94,0-1.71,3.78-3.59,8-6.34,13.24-7.38a16.57,16.57,0,0,1,6.58.08c.53.11,1,.31.75,1s-.61.79-1.28.52a7.25,7.25,0,0,0-9.84,4.2,6.75,6.75,0,0,0,0,5.11c.16.41.42.86-.18,1.1s-.8-.22-1-.67a8.49,8.49,0,0,1,1-8C264.58,88.65,264.83,88.33,265.09,88Z"/><path class="cls-21" d="M278.69,82.61c-.21.78-.61.75-1.12.6a39.53,39.53,0,0,0-4.25-1.09,16.79,16.79,0,0,0-10.47,2.06,29.25,29.25,0,0,0-7,5c-.12.11-.22.3-.35.33a7.47,7.47,0,0,1-.94.09c0-.31-.06-.74.11-.9a34.08,34.08,0,0,1,3-2.68,24.45,24.45,0,0,1,11.22-5.18A17.55,17.55,0,0,1,278,82.05,2.67,2.67,0,0,1,278.69,82.61Z"/><circle class="cls-22" cx="311.97" cy="94.04" r="21.93"/><path d="M314.11,75.15a32.84,32.84,0,0,1,4.06,1.1,13.94,13.94,0,0,1,4.32,23,1.66,1.66,0,0,0-.46,1.1c0,3.54,0,7.07,0,10.61,0,.32,0,.65-.06,1H305.61v-6.39h-6.73v-7.1h-3.46c.1-.34.15-.57.24-.79.78-2.09,1.6-4.16,2.33-6.25a19.14,19.14,0,0,0,1-3.66A13.78,13.78,0,0,1,308.11,76a26.13,26.13,0,0,1,3.54-.87ZM301.05,96.32v7.09h6.65v6.31h12.19v-1c0-3.13,0-6.27,0-9.4a1.84,1.84,0,0,1,.53-1.16c3.62-3.25,5.06-7.28,3.85-12a11.33,11.33,0,0,0-9.13-8.66,11.72,11.72,0,0,0-14,10.07c-.27,2.75-1.59,5.11-2.38,7.66-.08.26-.18.51-.27.77a1.85,1.85,0,0,0,0,.29Z"/><path d="M307,81.43,308.27,83l3.57-1.48v-2H314v2L317.56,83l1.26-1.46,1.81,1.64L319,84.43c.45,1.18.79,2.14,1.2,3.08a1,1,0,0,0,.63.5,10.58,10.58,0,0,0,1.59,0v2.13c-.61,0-1.16,0-1.7,0a.66.66,0,0,0-.49.28c-.41,1.05-.79,2.1-1.27,3.42L320.39,95l-1.58,1.67-1.33-1.51-3.55,1.48v2H311.8v-2l-3.61-1.51L307,96.57l-1.66-1.63,1.47-1.21-1.49-3.56h-2V88c.59,0,1.13,0,1.67,0a.73.73,0,0,0,.54-.32c.42-1,.79-2.1,1.23-3.28l-1.45-1.31Zm5.8,2.35a5.31,5.31,0,0,0-5.27,5.4A5.32,5.32,0,1,0,318.2,89,5.26,5.26,0,0,0,312.84,83.78Z"/></g></g></svg>