<svg xmlns="http://www.w3.org/2000/svg" viewBox="0 0 807.11 583.87"><defs><style>.cls-1{fill:#444cad;}.cls-2{fill:#26373e;}.cls-3{fill:#ccc;}.cls-4{fill:#727272;}.cls-5{fill:#252826;}.cls-6{fill:#3d3d3d;}.cls-7{fill:#9e005d;}.cls-8{fill:#757575;}.cls-21,.cls-9{fill:#fff;}.cls-10{fill:#efefef;}.cls-11{fill:#c4c3c8;}.cls-12{fill:#29abe2;}.cls-13{fill:#7a135f;}.cls-14{fill:#f0c30f;}.cls-15{fill:#e57d22;}.cls-16{fill:#f29b12;}.cls-17{fill:#906a14;}.cls-18{fill:#9c7c2c;}.cls-19{fill:#36a4c5;}.cls-20{fill:#7a5924;}.cls-21{stroke:#29abe2;stroke-miterlimit:10;}</style></defs><g id="Layer_2" data-name="Layer 2"><g id="Layer_1-2" data-name="Layer 1"><rect class="cls-1" width="807.11" height="583.87" rx="15.99"/><circle class="cls-2" cx="284.57" cy="140.82" r="42.11"/><path class="cls-3" d="M226.68,140.82a57.9,57.9,0,1,0,57.89-57.9A57.89,57.89,0,0,0,226.68,140.82Zm92.11,2.63a13.16,13.16,0,1,1,13.15-13.16A13.16,13.16,0,0,1,318.79,143.45Zm-26.32,26.32a13.16,13.16,0,1,1,13.16,13.15A13.16,13.16,0,0,1,292.47,169.77Zm-7.9-52.64A13.16,13.16,0,1,1,297.73,104,13.15,13.15,0,0,1,284.57,117.13Zm-34.21,52.64a13.16,13.16,0,1,1,13.16,13.15A13.16,13.16,0,0,1,250.36,169.77Zm-13.15-39.48a13.16,13.16,0,1,1,13.15,13.16A13.16,13.16,0,0,1,237.21,130.29Z"/><circle class="cls-2" cx="283.26" cy="139.5" r="3.95"/><circle class="cls-2" cx="283.26" cy="150.03" r="3.95"/><circle class="cls-2" cx="272.73" cy="142.13" r="3.95"/><circle class="cls-2" cx="293.78" cy="142.13" r="3.95"/><circle class="cls-2" cx="278" cy="131.61" r="3.95"/><circle class="cls-2" cx="288.52" cy="131.61" r="3.95"/><circle class="cls-2" cx="174.05" cy="143.45" r="42.11"/><path class="cls-3" d="M116.15,143.45a57.9,57.9,0,1,0,57.9-57.9A57.89,57.89,0,0,0,116.15,143.45Zm92.11,2.63a13.16,13.16,0,1,1,13.16-13.16A13.16,13.16,0,0,1,208.26,146.08ZM181.94,172.4a13.16,13.16,0,1,1,13.16,13.16A13.16,13.16,0,0,1,181.94,172.4Zm-7.89-52.64a13.16,13.16,0,1,1,13.15-13.15A13.16,13.16,0,0,1,174.05,119.76ZM139.84,172.4A13.16,13.16,0,1,1,153,185.56,13.16,13.16,0,0,1,139.84,172.4Zm-13.16-39.48a13.16,13.16,0,1,1,13.16,13.16A13.16,13.16,0,0,1,126.68,132.92Z"/><circle class="cls-2" cx="172.73" cy="142.13" r="3.95"/><circle class="cls-2" cx="172.73" cy="152.66" r="3.95"/><circle class="cls-2" cx="162.2" cy="144.77" r="3.95"/><circle class="cls-2" cx="183.26" cy="144.77" r="3.95"/><circle class="cls-2" cx="167.47" cy="134.24" r="3.95"/><circle class="cls-2" cx="177.99" cy="134.24" r="3.95"/><polygon class="cls-3" points="253 314.5 326.68 390.82 313.52 396.08 239.84 322.4 253 314.5"/><rect class="cls-3" x="224.05" y="327.66" width="13.16" height="65.79"/><polygon class="cls-3" points="218.78 325.03 145.1 396.08 134.57 385.56 210.89 314.5 218.78 325.03"/><path class="cls-4" d="M342.47,401.35H305.63s2.63-15.79,18.42-15.79S342.47,401.35,342.47,401.35Z"/><path class="cls-4" d="M247.73,401.35H210.89s2.63-15.79,18.42-15.79S247.73,401.35,247.73,401.35Z"/><path class="cls-4" d="M153,401.35H116.15s2.63-15.79,18.42-15.79S153,401.35,153,401.35Z"/><path class="cls-4" d="M258.26,285.56v23.68s-5.27,23.69-26.32,23.69S203,309.24,203,309.24V285.56Z"/><rect class="cls-5" x="202.99" y="285.56" width="55.26" height="13.16" transform="translate(461.25 584.27) rotate(-180)"/><path class="cls-6" d="M318.79,201.34v89.48H134.57V201.34h36.84a36.9,36.9,0,0,0,29-18.42c10.53-18.42,31.58-13.15,31.58-13.15s23.69-2.64,31.58,15.79,42.11,15.78,42.11,15.78Z"/><path class="cls-4" d="M326.68,235.56s2.63,0,7.89,5.26,0-31.58,0-31.58-2.63,2.63-7.89,2.63S326.68,235.56,326.68,235.56Z"/><rect class="cls-5" x="318.79" y="211.87" width="7.89" height="23.68" transform="translate(645.47 447.43) rotate(-180)"/><rect class="cls-5" x="334.57" y="206.61" width="5.26" height="36.84" transform="translate(674.41 450.06) rotate(-180)"/><rect class="cls-5" x="131.94" y="219.77" width="2.63" height="47.37" transform="translate(266.51 486.9) rotate(-180)"/><rect class="cls-5" x="110.89" y="203.98" width="7.89" height="76.32" transform="translate(229.67 484.27) rotate(-180)"/><path class="cls-4" d="M131.94,219.77l-7.89-7.9c-2.64-2.63-5.27-7.89-5.27-7.89v76.31a19.62,19.62,0,0,1,7.9-7.89l5.26-2.63Z"/><circle class="cls-7" cx="163.52" cy="217.13" r="7.89"/><rect class="cls-8" x="272.41" y="27.85" width="435.83" height="312.42" rx="27.14"/><path class="cls-9" d="M293.1,43.44H685.91a4.8,4.8,0,0,1,4.8,4.8V274.67a0,0,0,0,1,0,0H289.3a0,0,0,0,1,0,0V47.24A3.8,3.8,0,0,1,293.1,43.44Z"/><path class="cls-10" d="M708.24,290.26v22.87a27.12,27.12,0,0,1-27.13,27.14H299.55a27.13,27.13,0,0,1-27.14-27.14V290.26Z"/><rect class="cls-11" x="434.79" y="339.62" width="103.92" height="35.07"/><polygon class="cls-10" points="538.72 374.7 434.79 374.7 403.62 387.89 403.62 392.88 577.69 392.88 577.69 387.73 538.72 374.7"/><circle class="cls-11" cx="487.22" cy="316.37" r="12.14"/><rect class="cls-12" x="345.59" y="243.53" width="327.78" height="12.14"/><path class="cls-13" d="M493.51,305.27c-2.19-2.47-2.68-5.39-2.37-8.56a16,16,0,0,1,1.71-4.93c7-15.81,16.8-29.64,30.08-40.83,10.4-8.76,22.08-15.07,35.44-18a61.91,61.91,0,0,1,7.17-1.17c.31,0,.7,0,.84-.38h33.11c.11.39.46.34.74.37a75.1,75.1,0,0,1,32.11,11.47c14.2,8.9,25.15,20.93,33.77,35.19a103.78,103.78,0,0,1,8,15.95,10.66,10.66,0,0,1-1.21,10.29,2.83,2.83,0,0,1-.51.46,3.44,3.44,0,0,0-.32-1.67c-1.56-3.12-3.1-6.27-4.85-9.3A110.5,110.5,0,0,0,642.11,264a86.86,86.86,0,0,0-27.71-15.79,70.71,70.71,0,0,0-22.87-3.9h-18a60.77,60.77,0,0,0-8.84.69,77.67,77.67,0,0,0-24.79,8.16,94.46,94.46,0,0,0-20.34,14.45,106.58,106.58,0,0,0-12.44,13.73,122.07,122.07,0,0,0-12.85,21.08A5.34,5.34,0,0,0,493.51,305.27Z"/><path class="cls-7" d="M493.51,305.27a5.34,5.34,0,0,1,.8-2.85,122.07,122.07,0,0,1,12.85-21.08,106.58,106.58,0,0,1,12.44-13.73,94.46,94.46,0,0,1,20.34-14.45A77.67,77.67,0,0,1,564.73,245a60.77,60.77,0,0,1,8.84-.69h18a70.71,70.71,0,0,1,22.87,3.9A86.86,86.86,0,0,1,642.11,264a110.5,110.5,0,0,1,25.1,30.15c1.75,3,3.29,6.18,4.85,9.3a3.44,3.44,0,0,1,.32,1.67,5.4,5.4,0,0,1-2.5,2.25,1.35,1.35,0,0,0-.79,1.36c0,2.89,0,5.79,0,8.68a1.35,1.35,0,0,0,1,1.42,12.32,12.32,0,0,1,7.49,13.39,13,13,0,0,1-11.49,11,3.09,3.09,0,0,0-2.81,1.77q-9.51,16.53-19.13,33c-.25.44-.55.84-.83,1.26,0-.48,0-.95-.07-1.43,0-.33.07-.67.07-1q0-9.78,0-19.56c0-.33,0-.67-.08-1l.09-.26c2-3.15,3.72-6.46,5.59-9.69,1.58-2.74,3.11-5.5,4.7-8.24a1.25,1.25,0,0,0,0-1.47A12.46,12.46,0,0,1,659,319a2,2,0,0,0,1.45-2.22c-.09-3.13,0-6.26,0-9.39a2.35,2.35,0,0,0-.59-1.74,7.93,7.93,0,0,1-1.38-2.33,88.89,88.89,0,0,0-24-33.34,69.19,69.19,0,0,0-30.56-15.68A55.28,55.28,0,0,0,592,253c-6.43,0-12.85-.08-19.28,0A57.44,57.44,0,0,0,554,256.62a72.82,72.82,0,0,0-21.7,12.6,86.83,86.83,0,0,0-15.94,17.59,96.43,96.43,0,0,0-8.25,14.67c-.74,1.62-1.25,3.35-2.51,4.68a1.26,1.26,0,0,0-.21,1c0,3.47,0,6.93,0,10.4a1.19,1.19,0,0,0,.89,1.25,12.55,12.55,0,0,1,6,17.85,1.11,1.11,0,0,0-.14,1.29q5.12,8.94,10.2,17.89a2,2,0,0,0,.19.22l.09.26a37.63,37.63,0,0,0-.08,4.63c0,5.63,0,11.27,0,16.91l-.08,1.42c-.77-1.29-1.57-2.57-2.33-3.88q-8.9-15.3-17.75-30.62a2.54,2.54,0,0,0-2.25-1.46,13,13,0,0,1-11.87-10.94,12.33,12.33,0,0,1,7.34-13.46,1.5,1.5,0,0,0,1.1-1.64c0-2.82,0-5.65,0-8.47a1.41,1.41,0,0,0-.84-1.43A6.32,6.32,0,0,1,493.51,305.27Zm7.63,29.48a4.3,4.3,0,0,0,0-8.59,4.3,4.3,0,1,0,0,8.59Zm163.6,0a4.3,4.3,0,1,0-4.27-4.3A4.49,4.49,0,0,0,664.74,334.75Z"/><path class="cls-13" d="M617.34,429.57a32.21,32.21,0,0,1-6.44-.24,13.11,13.11,0,0,1-10.79-13.1q0-18.51,0-37,0-19.77,0-39.55a13.3,13.3,0,0,1,3.21-9.3,13,13,0,0,1,9.9-4.23c1.38,0,2.76,0,4.14,0a.37.37,0,0,0,.07.14c0,.34-.05.67-.05,1v49.48c0,.34,0,.67,0,1a3,3,0,0,0-.11,1.29v49.12c0,.41,0,.81,0,1.21A.57.57,0,0,0,617.34,429.57Z"/><path class="cls-13" d="M548.49,326.13c2.68,0,5.39-.23,8,.55a12,12,0,0,1,8.88,9.55,20.42,20.42,0,0,1,.36,4.41q0,37.74,0,75.48a13.21,13.21,0,0,1-8.64,12.65,15.2,15.2,0,0,1-5,.81c-1.21,0-2.43,0-3.64,0a.37.37,0,0,0,0-.18c0-.2,0-.4,0-.61q0-25,0-50.12a6.55,6.55,0,0,0-.1-.89c0-.27,0-.54,0-.81q0-24.88,0-49.78c0-.31,0-.61,0-.91A.61.61,0,0,0,548.49,326.13Z"/><path class="cls-14" d="M548.43,377.77a6.55,6.55,0,0,1,.1.89q0,25.07,0,50.12c0,.21,0,.41,0,.61-1.17,0-2.34,0-3.5.07a39.44,39.44,0,0,0-5.1.12c-2.52,0-5,0-7.55,0-.84,0-1.16-.14-1.13-1.08.07-2.52,0-5,0-7.55q0-21.6,0-43.2Z"/><path class="cls-14" d="M617.37,429.39c0-.4,0-.8,0-1.21V379.06a3,3,0,0,1,.11-1.29h17.19V421c0,2.52-.06,5,0,7.55,0,.94-.29,1.09-1.14,1.08-2.51-.06-5,0-7.54,0a3,3,0,0,0-1.29-.12Z"/><path class="cls-14" d="M548.43,377.77H531.24q0-21.51,0-43c0-2.56,0-5.11,0-7.67,0-.72.13-1,.93-1,2.58.06,5.17,0,7.76,0a2.83,2.83,0,0,0,1.19.11l7.31,0c0,.3,0,.6,0,.91q0,24.88,0,49.78C548.46,377.23,548.44,377.5,548.43,377.77Z"/><path class="cls-14" d="M634.63,377.78H617.44c0-.34,0-.67,0-1V327.28c0-.34,0-.67.05-1,.9,0,1.8,0,2.7,0a56.08,56.08,0,0,0,5.8-.11c2.59,0,5.18,0,7.76,0,.8,0,.94.25.93,1,0,2.56,0,5.11,0,7.67q0,21.51,0,43Z"/><path class="cls-15" d="M531.24,377.77q0,21.6,0,43.2a9.09,9.09,0,0,1-8.65-9.18q0-15.72,0-31.44c0-.37,0-.74,0-1.11s.05-.94.08-1.42l.16-.05Z"/><path class="cls-15" d="M634.63,421V377.78h8.44a.51.51,0,0,0,.15.07c0,.48,0,1,.07,1.43v32.4a9,9,0,0,1-6.61,8.94A15.41,15.41,0,0,1,634.63,421Z"/><path class="cls-16" d="M531.24,377.77h-8.46q0-10.11,0-20.2a3.13,3.13,0,0,0-.11-1.29l-.09-.26c0-3.93,0-7.87,0-11.8a15.88,15.88,0,0,1,.28-3,8,8,0,0,1,7.16-6.27,6.82,6.82,0,0,0,1.17-.2Q531.25,356.26,531.24,377.77Z"/><path class="cls-16" d="M643.07,377.77h-8.44q0-21.51,0-43a17.85,17.85,0,0,1,3.66.79c3.57,1.67,4.89,4.66,4.94,8.38,0,4,0,8.07.06,12.1l-.09.26a3,3,0,0,0-.11,1.29Z"/><path class="cls-17" d="M539.9,429.58a39.44,39.44,0,0,1,5.1-.12c1.16,0,2.33,0,3.5-.07a.37.37,0,0,1,0,.18C545.65,429.71,542.77,429.7,539.9,429.58Z"/><path class="cls-17" d="M617.37,429.39l7.31.07a3,3,0,0,1,1.29.12c-2.88.12-5.75.13-8.63,0A.57.57,0,0,1,617.37,429.39Z"/><path class="cls-18" d="M548.42,326.27l-7.31,0a2.83,2.83,0,0,1-1.19-.11c2.86-.12,5.71-.11,8.57,0A.61.61,0,0,1,548.42,326.27Z"/><path class="cls-18" d="M626,326.14a56.08,56.08,0,0,1-5.8.11c-.9,0-1.8,0-2.7,0a.37.37,0,0,1-.07-.14C620.24,326,623.09,326,626,326.14Z"/><path class="cls-19" d="M501.14,334.75a4.3,4.3,0,1,1,4.26-4.31A4.48,4.48,0,0,1,501.14,334.75Z"/><path class="cls-19" d="M664.74,334.75a4.3,4.3,0,0,1,0-8.59,4.3,4.3,0,1,1,0,8.59Z"/><path class="cls-20" d="M522.66,356.28a3.13,3.13,0,0,1,.11,1.29q0,10.1,0,20.2l-.16.05c0-5.64,0-11.28,0-16.91A37.63,37.63,0,0,1,522.66,356.28Z"/><path class="cls-20" d="M643.07,377.77l0-20.2a3,3,0,0,1,.11-1.29c0,.33.08.67.08,1q0,9.78,0,19.56c0,.33,0,.67-.07,1A.51.51,0,0,1,643.07,377.77Z"/><path class="cls-12" d="M450.8,94.37V196.5c0,3.3,2.59,5.53,4.93,4.24l85.17-46.81c2.79-1.53,2.91-6.6.2-8.36L455.94,90.25C453.58,88.72,450.8,90.94,450.8,94.37Z"/><path class="cls-12" d="M309.17,233.08v31.36c0,1,.8,1.7,1.52,1.31l26.14-14.38a1.61,1.61,0,0,0,.07-2.56l-26.15-17C310,231.35,309.17,232,309.17,233.08Z"/><circle class="cls-21" cx="418.43" cy="247.58" r="16.19"/></g></g></svg>