<svg xmlns="http://www.w3.org/2000/svg" viewBox="0 0 819.81 593.05"><defs><style>.cls-1{fill:#b371ff;}.cls-2{fill:#fbfdfd;}.cls-3{fill:#36a4c5;}.cls-4{fill:#333;}.cls-5{fill:#fff;}.cls-6{fill:#666;}.cls-11,.cls-7{fill:#9e005d;}.cls-8{fill:#1a1a1a;}.cls-9{fill:#757575;}.cls-10,.cls-12,.cls-14{fill:none;}.cls-10{stroke:#333;stroke-width:0.25px;}.cls-10,.cls-11,.cls-12,.cls-14{stroke-miterlimit:10;}.cls-11,.cls-12,.cls-14{stroke:#9e005d;}.cls-11,.cls-12{stroke-width:2px;}.cls-13{fill:#edbf4c;}</style></defs><g id="Layer_2" data-name="Layer 2"><g id="Layer_1-2" data-name="Layer 1"><rect class="cls-1" width="819.81" height="593.05" rx="15.99"/><rect class="cls-2" x="518.43" y="27.14" width="173.35" height="208.41" rx="2" transform="translate(-12.19 82.91) rotate(-7.76)"/><path class="cls-3" d="M651.63,157.38c-.35,2.71.19,4.21,3.27,5.57,5.47,2.4,8,10,6.45,15-1.27,4.08-3.56,5.56-7.74,4.34.25-3.41,3.59-3.08,5.33-4.59,2.64-2.28,4.83-4.51.95-7.56-2.64-2.07-4.23-7-8.77-4.3-4.29,2.55-3,6.61-1.42,10.34.45,1.07,1,2.07,0,3.65-4.74-3.12-6-7.67-3.63-12.15s3.51-8.72,2.21-13.67c-1-3.88.77-6.05,4.69-6.7,2-.34,3.93-1,5.91-1.44,1.36-.3,2.94-.44,2-2.45-.71-1.59-1.18-3.55-3.75-3.06-9.31,1.8-11,.8-13.29-8.94-.54-2.29-2.56-5-.11-7.5.73.32,1.43.45,1.46.68,1.92,12.84,3.34,13.86,16.17,11.18,2.9-.6,5.7-1.68,8.6-2.27,5.33-1.07,5.41-4.54,4.5-8.8-1.12-5.28-4.34-3.07-7.35-2.38-5.52,1.28-11.09,2.39-16.65,3.47-.5.09-1.14-.55-2.47-1.24,4.76-2,10.44-2.83,7.74-9.9-1.2-3.12-2.66-4-5.56-2.82-12.63,5-25.87,7.15-39.25,8.82-1.85.23-5.27-.37-5,3.15.19,2.78.88,4.24,5.07,3.54,5.16-.86,12.24,11.72,10.41,16.86-1.19,3.33-4.44,2.66-6.75,3.83s-7.62-.61-6.31,4.8c1.11,4.59,4.62,5.67,9.14,4.51,3.47-.89,7.26-2,9.72,2.17,0,3.23-.27,6.49,1.34,9.49-.17.19-.35.37-.53.54-6.51,2.57-7.15,6.64-2.05,12.49.84,1,3.23,1.64,1.54,3.51-.5.56-2.07.15-3.15.19l-.24-.18-1.13-1.18-.15-.21-1.07-1.75c-2-4.77-3.47-9.37.82-13.93,1.82-1.93,1.54-5.06.39-7.07-1.27-2.23-3.7-.21-5.56.15-6,1.19-12.07,2.37-18,3.91-2.62.67-5.25,2-5.39,5.4s2.79,2.86,4.77,3.7a12.25,12.25,0,0,1,7.1,14c-1.19,5-4.7,6.45-9.27,6a9.38,9.38,0,0,1-7.88-12.95c3.53,3.54,4.05,11.36,11.35,9.13,3.32-1,4.11-4.78,2.71-8.14-2.22-5.35-6.21-6.76-12.3-3.77,1-4.51,2.35-8.13.54-12-1.24-2.65.72-4.21,3.29-4.8s5.33-1.25,8-1.7c3.2-.54,4.94-1.87,4.1-5.5-.73-3.14-2.09-5-5.63-4.13-1.75.43-3.92.24-5.22,1.23-5.79,4.4-7.09,0-8.1-4.12-.62-2.6-.15-5.44-.52-8.14-.46-3.45.74-5.1,4.29-5.37a56,56,0,0,0,6.66-1.4c2.78-.57,5.56-1,4.83-5-.63-3.51-2.38-5.25-6.12-4.63-9.2,1.51-18.43,2.87-27.62,4.43-5.16.88-10.25,2.12-15.4,3.06-3.23.59-4.94,1.65-3.46,5.43,1.2,3.07.86,7.32,6.21,5.53a8.68,8.68,0,0,1,1.35-.25c11.51-2.14,14.37.33,14.4,12.16a3,3,0,0,1-2.57,3.36c-2.42.64-4.81,1.42-7.26,1.94-3,.65-6.42.93-5,5.3,1.06,3.26,1.76,7.48,7.19,5.47,6.65-2.47,11.21-1.05,11.69,7,.12,2,1.54,3.14,2.84,4.43a10.16,10.16,0,0,1,3.38,7.26c0,3.51-.57,7.06-4,8.86s-6.25-.75-8.66-2.56c-3-2.24-3.9-5.44-1.39-8.86,2.27.56,2.25,2.49,2.7,4.25.74,2.87,2.22,5.44,5.67,4,3.18-1.35,3.91-4.23,2.55-7.43a6.78,6.78,0,0,0-6.16-4.52L572,181.06c.25-.72.51-1.45.77-2.17,1.44-1.55.76-2.94-.34-4.3-.83-4.31-3.27-2.49-5.51-1.45l-8.3.46a3.29,3.29,0,0,0-3.15.8l-3.6.54a2.76,2.76,0,0,0-2.84.76l-2.72.56c-1-.12-1.93,0-2.37,1.12l-.26.19c-2.24,1.39-2,2.91-.25,4.52a.51.51,0,0,0,.25.75c.06.83.39,1.41,1.33,1.41l1.74,1.31c-.64.53-1.27,1.51-1.92,1.52-5.33.11-5.84,3.55-4.74,7.36,1.15,4,3.54,6,8.09,3.43,3.69-2.1,2.27,1.15,2.3,2.72h0L549.08,202h0l-6.81.22c-6.69-5.47-7.39-9.86-2.41-16.62,1-1.43,1.77-2.9,1.21-4.39-3-7.94,2-8.76,7.86-9.43,7.17-.82,8-2.66,6-8.73-1.54-4.56-4.38-2.66-7.15-2.35-3,.34-6.29,3.12-8.75-.58a15.27,15.27,0,0,1-1.77-12.52c.67-2.66,3.15-3.06,5.48-3.23,4.51-.35,6.08-2.58,4.51-6.86-1.9-5.18,0-7.41,5.24-9.2,12-4.09,24.78-3.77,36.9-7,2-.53,4-.78,6-1.37s5.09-.25,5.39-3.17c.27-2.68-2.28-3.48-4.34-4.6A13.26,13.26,0,0,1,593.51,91c4.37-4.21,2-9.25.69-13.83S589,74.42,586.14,75A142.1,142.1,0,0,1,572,77.41c-3.07.3-4.47-1.5-6.43-2.81l-1.42-1.3,0,0c-.37-.64-.75-1.28-1.13-1.92-.18-2.12-.35-4.25-.52-6.37a3.41,3.41,0,0,0-.84-3.25.48.48,0,0,0-.12-.78c.09-1.78.19-3.56.28-5.34a1.11,1.11,0,0,0,1-.1h1.4l-.1-.09c.9,5.12,2,10.2,2.65,15.35.48,3.86,2.74,4.16,5.75,3.65,11.16-1.88,22.41-3.36,33.46-5.75,13.64-2.94,13.57-3.26,11.34-16.87-.07-.44-.45-.88-.4-1.28.52-4,2-.74,3.1-.4.24,1.35.49,2.71.73,4.06l.75,2-.15.36.27.29c.1,3.19,1.08,6.37.15,9.57l-1.52,1.76-1.48.86a1.44,1.44,0,0,0-1.24.38,3.13,3.13,0,0,0-3,1l-.57,0-.48.3c-1.5-.08-3-.13-4.2,1l-4.11.64a3.34,3.34,0,0,0-3.13.82l-.49-.06-.4.3c-4,.17-6.36,1.32-3.23,5.61.28,1.8.56,3.59.85,5.39,0,2.12-1.18,4.78,2.3,5.46h0a2.74,2.74,0,0,0,2.72,1.08l3.09,3,.92,1.51h-.09l2.79,5.86a.49.49,0,0,0,0,.79q-1.38,4.73-2.75,9.47l-1.31,1.13c-2.4.67-2.5,2.24-1.4,4,1.74,2.81,4,1.79,6.19.61l2.24-.12c1.93,0,3.9.11,5.55-1.2l4.14-.65,2-.73.37.19.32-.25,4.28-1,4-.78a3.44,3.44,0,0,0,3.32-.91l2.09-.36c1.5.1,3,.15,4.18-1,2.07,0,4.05-.25,5.5-2l1.51-.87,3.41,0,1.76,1.41a15.31,15.31,0,0,1,3.27,8c2.19,5.42,5.9,2.57,9.24,1.68l4-.63.64.14.64-.08,4.5,8.57.81,2c-.4,1.61-.79,3.23-1.19,4.84l-1.41,1.23-1.39.48-1.46.82,0-.08-2.78,1.09-2.63.91-1.53.72,0-.11c-3.07.2-2.27,2.21-1.68,3.88s.73,4,3.51,2.41l2.59-.51a8.86,8.86,0,0,0,5.63-.9c2.31-.44,4,.63,5.36,2.31.2,1.89-.09,3.87,1.14,5.54.17.92.34,1.84.52,2.76l1,1.43-.09,2.3c-8.87,1.19-10.08,3-7.19,11.25a5,5,0,0,1,.07,3.94l-.52,0-1.79-1.19,0,0-1.32-1.32,0-.05-1.2-1.66c-.16-.84-.32-1.68-.49-2.52,0-1.31.05-2.62.07-3.93a1.63,1.63,0,0,0,.38-1.23l1.26-1.57,1.46-1.2,1.36-1.51v0c4.38-1.89,3.31-5.64,2-8.41-1.39-2.93-4.11-1.16-6.23,0l-4.16.46a3.45,3.45,0,0,0-3.27.85l-2.13.38c-2.81-.05-5.7-.83-8.33.87l-2.62.55C649.3,153.41,650.5,155.4,651.63,157.38Zm-109.81-.13c3.12-3.1,6.23.22,9-.59a49.69,49.69,0,0,1,10-1.41c3.81-.32,6.33-2,6.13-6.56-.26-5.81-4-2.3-6.29-2.57a38.08,38.08,0,0,0-5.44-.3C544.75,146.11,540.91,149.06,541.82,157.25ZM592,146.68c7.4-1.24,14.63-2.64,21.92-3.56,2.64-.34,4.34-.3,3.4-3.74-.6-2.22-.32-3.07-3.82-3.16-8.19-.2-15,4.24-23,4.71ZM606,99.91c-1.06-2.23-3.33-5.5-6.47-5.42-2.8.06-7.07,1.63-6.38,6.24.57,3.88,2,7.72,6.84,7.8S605.42,104.77,606,99.91Z"/><path class="cls-3" d="M614.77,44.48,564.09,55.41l.1.09c.06-.48.11-1,.16-1.44L567,51l1.51-.89,2.61-.48a3.6,3.6,0,0,0,3.31-.81,7,7,0,0,0,4.81-.48l2.89-.68,4-.72a3.31,3.31,0,0,0,3.21-.87.54.54,0,0,0,.82-.15,6,6,0,0,0,4.27-1l4-.76a3.43,3.43,0,0,0,3.27-.87.46.46,0,0,0,.76-.11l9.76-1C613.59,42.44,614.79,42.78,614.77,44.48Z"/><path class="cls-3" d="M679.89,173.21c8-2.42,8-2.42,6.08-13.7l1.43.05,1.39,1.19.13.16,1.11,1.77a.89.89,0,0,0,.28,1c0,1.83,0,3.65,0,5.47a1.09,1.09,0,0,0-.29,1.08l-.84,1.57c-.17.44-.33.88-.5,1.31l-1.27,1.5-.05,0-1.54,1.27-3.91,0-1.4-1Z"/><path class="cls-3" d="M631.74,186.66c-.15-.86-.72-2-.37-2.54,4.29-6.12,1-10.42-3.29-14.55.18-.17.36-.35.53-.54l2.64.13v0l1.43,1.09.28.24,1.06,1.19,1.53,3c-.07,1.5-.06,3,1.16,4.1l-.18,2.66c-.4.91-.81,1.83-1.21,2.75h0c-.36.49-.73,1-1.1,1.46l-.19.21-1.79,1Z"/><path class="cls-4" d="M539,344.38H377l0,67.87,36.86.48a24.85,24.85,0,0,1,22.69,15.45h0l-148.89-1.39h0a24,24,0,0,1,22.05-14.54h37.51l.38-67.87H181.79A18.77,18.77,0,0,1,163,325.61v-245a18.77,18.77,0,0,1,18.77-18.77H539a18.77,18.77,0,0,1,18.77,18.77v245A18.77,18.77,0,0,1,539,344.38Z"/><rect class="cls-5" x="181.03" y="81.21" width="359.43" height="235.46"/><rect class="cls-6" x="208.73" y="103.37" width="304.02" height="55.4"/><rect class="cls-7" x="208.73" y="171.94" width="56.1" height="56.1"/><rect class="cls-8" x="277.29" y="171.94" width="233.39" height="15.24"/><rect class="cls-8" x="277.29" y="198.95" width="112.19" height="15.24"/><rect class="cls-8" x="277.29" y="241.19" width="233.39" height="15.24"/><rect class="cls-8" x="277.29" y="268.2" width="112.19" height="15.24"/><rect class="cls-7" x="208.73" y="241.19" width="56.1" height="56.1"/><rect class="cls-9" x="468.74" y="207.85" width="165.34" height="235.53" rx="2.46"/><rect class="cls-5" x="480.04" y="221.51" width="143.2" height="191.25"/><circle class="cls-10" cx="551.17" cy="428.31" r="5.65"/><rect class="cls-6" x="502.94" y="332.15" width="97.12" height="32.37"/><rect class="cls-11" x="496.87" y="234.9" width="119.38" height="77.02"/><path class="cls-12" d="M616.24,311.91"/><path class="cls-12" d="M498.89,239.08"/><path class="cls-12" d="M616.24,235"/><path class="cls-12" d="M494.85,311.91"/><rect class="cls-13" x="599.69" y="191.83" width="87.15" height="152.62" rx="1.38"/><rect class="cls-5" x="604.88" y="207.85" width="77.25" height="112.11"/><circle class="cls-10" cx="642.98" cy="330.28" r="5.7"/><rect x="631.25" y="200.31" width="24.5" height="1.88"/><rect class="cls-11" x="613.45" y="218.71" width="59.21" height="56.78"/><path class="cls-14" d="M672.65,275.5"/><path class="cls-14" d="M614.45,221.79"/><path class="cls-14" d="M672.65,218.81"/><path class="cls-14" d="M612.44,275.5"/><rect class="cls-6" x="610.18" y="289.66" width="64.75" height="12.14"/><rect class="cls-8" x="494.85" y="388.66" width="117.35" height="12.14"/></g></g></svg>