<svg xmlns="http://www.w3.org/2000/svg" viewBox="0 0 807.11 583.87"><defs><style>.cls-1{fill:#8350ff;}.cls-2{fill:#dbdbdb;}.cls-3{fill:#edbf4c;}.cls-4{fill:#1a1a1a;}.cls-5{fill:#666;}.cls-6{fill:#fff;}.cls-7{fill:#9e005d;}.cls-8{fill:#630c44;}.cls-9{fill:#ffd55a;}.cls-10{fill:gray;}.cls-11{fill:#ccc;}.cls-12{fill:#b3b3b3;}.cls-13{fill:#bc2485;}.cls-14{fill:#b779ac;}.cls-15{fill:none;stroke:#29abe2;stroke-miterlimit:10;stroke-width:6px;}.cls-16{fill:#d7d8da;}</style></defs><g id="Layer_2" data-name="Layer 2"><g id="Layer_1-2" data-name="Layer 1"><rect class="cls-1" width="807.11" height="583.87" rx="15.99"/><rect class="cls-2" x="200.88" y="53.97" width="233.01" height="329.07" transform="translate(682.71 341.01) rotate(163.99)"/><rect class="cls-3" x="215.3" y="138.28" width="61.74" height="72.32" transform="translate(530.9 274.22) rotate(163.99)"/><rect class="cls-4" x="278.61" y="106.92" width="102.51" height="14.23" transform="translate(678.39 132.69) rotate(163.99)"/><rect class="cls-4" x="288.34" y="126.9" width="98.59" height="14.23" transform="matrix(-0.96, 0.28, -0.28, -0.96, 699.14, 169.73)"/><rect class="cls-4" x="290.38" y="147.96" width="102.51" height="14.23" transform="translate(712.79 209.93) rotate(163.99)"/><rect class="cls-4" x="308.69" y="166.73" width="89.84" height="14.23" transform="translate(741.45 243.44) rotate(163.99)"/><rect class="cls-4" x="240.67" y="248.05" width="177.22" height="14.23" transform="translate(716.17 409.63) rotate(163.99)"/><rect class="cls-5" x="224.75" y="212.73" width="184.99" height="26.58" transform="translate(684.52 355.8) rotate(163.99)"/><rect class="cls-5" x="190.83" y="85.17" width="184.99" height="26.58" transform="translate(582.82 114.98) rotate(163.99)"/><rect class="cls-4" x="238.95" y="269.63" width="184.99" height="14.23" transform="translate(726.34 451.38) rotate(163.99)"/><rect class="cls-4" x="257.67" y="288.35" width="171.9" height="14.23" transform="translate(755.39 484.72) rotate(163.99)"/><rect class="cls-4" x="254.43" y="310.15" width="181.2" height="14.23" transform="translate(764.17 527.08) rotate(163.99)"/><rect class="cls-6" x="373.1" y="31.37" width="233.01" height="329.07" transform="matrix(-0.99, -0.13, 0.13, -0.99, 950.15, 452.78)"/><rect class="cls-4" x="445.82" y="66.07" width="117.4" height="14.23" transform="translate(995.55 210.25) rotate(-172.66)"/><rect class="cls-4" x="409.07" y="89" width="184.99" height="14.23" transform="translate(986.73 255.55) rotate(-172.66)"/><rect class="cls-4" x="406.34" y="110.17" width="184.99" height="14.23" transform="translate(978.59 297.37) rotate(-172.66)"/><rect class="cls-4" x="403.62" y="131.34" width="184.99" height="14.23" transform="translate(970.45 339.19) rotate(-172.66)"/><rect class="cls-4" x="400.89" y="152.51" width="184.99" height="14.23" transform="translate(962.31 381) rotate(-172.66)"/><rect class="cls-4" x="489.96" y="265.41" width="88.94" height="14.23" transform="translate(1029.64 611.12) rotate(-172.66)"/><rect class="cls-4" x="487.23" y="286.58" width="88.94" height="14.23" transform="translate(1021.5 652.93) rotate(-172.66)"/><rect class="cls-4" x="484.5" y="307.75" width="88.94" height="14.23" transform="translate(1013.36 694.75) rotate(-172.66)"/><rect class="cls-4" x="481.78" y="328.92" width="88.94" height="14.23" transform="translate(1005.22 736.57) rotate(-172.66)"/><rect class="cls-7" x="528.59" y="190.9" width="21.34" height="60.48" transform="translate(1045.83 509.38) rotate(-172.66)"/><rect class="cls-7" x="499.68" y="197.89" width="21.34" height="49.8" transform="translate(988.04 508.98) rotate(-172.66)"/><rect class="cls-7" x="470.09" y="215.51" width="21.34" height="28.46" transform="translate(928.21 519.04) rotate(-172.66)"/><rect class="cls-7" x="443" y="194.15" width="21.34" height="46.25" transform="translate(875.85 490.76) rotate(-172.66)"/><rect class="cls-7" x="413.63" y="208.23" width="21.34" height="28.46" transform="translate(816.7 497.33) rotate(-172.66)"/><circle class="cls-8" cx="429.78" cy="291.32" r="35.57"/><path class="cls-7" d="M394.5,286.77c-4.55,35.28,30.73,39.83,30.73,39.83l9.1-70.57S399,251.49,394.5,286.77Z"/><rect class="cls-3" x="357.64" y="287.37" width="4.36" height="134.86" transform="translate(644 -63.04) rotate(79.62)"/><rect class="cls-9" x="355.44" y="295.24" width="11.63" height="134.86" transform="translate(652.92 -58.01) rotate(79.62)"/><rect class="cls-3" x="360.52" y="303.11" width="4.36" height="134.86" transform="translate(661.84 -52.98) rotate(79.62)"/><rect class="cls-5" x="276.63" y="365.3" width="20.36" height="22.02" transform="translate(605.29 26.4) rotate(79.62)"/><path class="cls-7" d="M255,366.51h20.36a0,0,0,0,1,0,0v24.78a2.74,2.74,0,0,1-2.74,2.74h-15a2.67,2.67,0,0,1-2.67-2.67V366.51A0,0,0,0,1,255,366.51Z" transform="translate(591.44 50.95) rotate(79.62)"/><polygon class="cls-10" points="442.78 341.83 444.88 353.27 465.49 343.58 442.78 341.83"/><polygon class="cls-11" points="425.75 340.51 442.78 341.83 444.88 353.27 429.42 360.54 419.71 357.88 424.88 351.02 417.61 346.44 425.75 340.51"/><path class="cls-10" d="M594.33,346s12.18-27.84-1.74-62.64-19.14-40-19.14-40l-7,12.18V231.17s-17.4-19.14-33.06-29.59-13.92-8.7-19.14-12.18S594.33,346,594.33,346Z"/><path class="cls-12" d="M592.59,351.23s-19.14,0-43.5-26.1-34.8-45.24-34.8-45.24,8.7,0,12.18,1.74a21.53,21.53,0,0,1,5.22,3.48s-15.66-13.92-20.88-17.4a51.48,51.48,0,0,1-7-5.22s12.18,1.74,15.66,1.74h5.22s-13.92-8.7-15.66-36.54,5-37.14,5-37.14Z"/><path class="cls-7" d="M552.57,457.38c18.79,1.7,35.9,3.41,51.33,3.48h.87c15.66,0,48.72-3.48,48.72-3.48s10.44-1.74,10.44-8.71V398.21s-20.88-17.4-36.54-19.14c-12.77-1.42-22.08-2.83-25.07-3.3l-1-.16-.11,0c-1.14.07-29.85,1.92-45.2,10.44-12.86,7.15-17.51,10.77-18.76,11.83l-.38.35v50.46S533.43,455.64,552.57,457.38Z"/><path class="cls-13" d="M602.32,375.77l1.58,44,60-10.3V398.21s-20.88-17.4-36.54-19.14C614.62,377.65,605.31,376.24,602.32,375.77Z"/><path class="cls-7" d="M603.9,407.78v53.08h.87c15.66,0,48.72-3.48,48.72-3.48s10.44-1.74,10.44-8.71V398.39A80.24,80.24,0,0,1,635.22,406C612.6,407.78,603.9,407.78,603.9,407.78Z"/><path class="cls-13" d="M537.29,397.86A123.64,123.64,0,0,0,570.84,406c19.14,1.74,33.06,1.74,33.06,1.74l-1.58-32-1-.16-.11,0c-1.14.07-29.85,1.92-45.2,10.44C543.19,393.18,538.54,396.8,537.29,397.86Z"/><path class="cls-7" d="M630,362.54l1.74,27.84a103.44,103.44,0,0,1-33.06,5.22c-19.14,0-31.32-5.22-31.32-5.22V360.8s7-7,31.32-7S630,362.54,630,362.54Z"/><path class="cls-14" d="M655.23,406.91s-1.74,1.74-3.48,1.74h-5.22V453.9a17.34,17.34,0,0,0,7-1.74c3.48-1.75,3.48,0,3.48,0Z"/><ellipse class="cls-15" cx="599.46" cy="362.03" rx="30.14" ry="7.53"/><path class="cls-16" d="M604.39,362h-4.66a3.11,3.11,0,0,1-2.79-1.68c-5-9.7-30.3-59.09-44.37-88.8C536.91,238.49,510.81,188,510.81,188s-3.48-5.22,0-7,5.22,3.48,5.22,3.48l43.5,87c9.42,18.85,40.12,77.41,46,88.62A1.27,1.27,0,0,1,604.39,362Z"/></g></g></svg>