<?xml version="1.0" encoding="utf-8"?>
<!-- Generator: Adobe Illustrator 23.0.1, SVG Export Plug-In . SVG Version: 6.00 Build 0)  -->
<svg version="1.1" id="Layer_1" xmlns="http://www.w3.org/2000/svg" xmlns:xlink="http://www.w3.org/1999/xlink" x="0px" y="0px"
	 viewBox="0 0 1366 25" style="enable-background:new 0 0 1366 25;" xml:space="preserve">
<style type="text/css">
	.st0{fill:#0F0E47;}
</style>
<path class="st0" d="M1366,25H0v-1C0,24,65.9,3.3,88.6,2c34.6-1.9,44.1,12,96.1,12.5C240.7,14.9,271.3,2,308.6,2
	c40.9,0,71.7,14,132.9,14C494.3,16,547.8,2,583,2c32,0,67.7,14,115.6,14c49.7,0,87.7-14,120.9-14c20.1,0,49.2,4.4,99.3,8
	c37.7,2.8,104.7-8.8,127.4-9c23.6-0.1,95.9,11,118.8,8c28.9-3.8,69.5-7.8,89.2-7.1c35,1.3,111.7,22,111.7,22V25z"/>
</svg>
